<svg width="37" height="28" viewBox="0 0 37 28" fill="none" xmlns="http://www.w3.org/2000/svg">
<g clip-path="url(#clip0_133_276)">
<path d="M18.5024 -0.0239258C14.9318 -0.0239258 12.0253 2.82486 12.0253 6.32896C12.0253 9.83306 14.9316 12.686 18.5024 12.686C22.0729 12.686 24.9753 9.83358 24.9753 6.32896C24.9753 2.82434 22.0727 -0.0239258 18.5024 -0.0239258ZM18.5005 1.78815C18.7318 1.78815 18.963 1.93932 18.963 2.24207V3.22006C19.7567 3.42372 20.3487 4.13134 20.3487 4.97196C20.3516 5.09395 20.3041 5.21209 20.2169 5.29943C20.13 5.38677 20.0107 5.43601 19.8862 5.43601C19.7617 5.43601 19.6425 5.38677 19.5554 5.29943C19.4685 5.21209 19.421 5.09395 19.4237 4.97196C19.4237 4.46514 19.0186 4.06327 18.5024 4.06327C17.986 4.06327 17.5774 4.46532 17.5774 4.97196C17.5774 5.47877 17.986 5.87981 18.5024 5.87981C19.5187 5.87981 20.3487 6.69807 20.3487 7.69551C20.3487 8.53608 19.7567 9.24374 18.963 9.44741V10.4165C18.963 11.0218 18.038 11.0218 18.038 10.4165V9.44663C17.2452 9.24175 16.6514 8.53494 16.6514 7.69556C16.6514 7.44449 16.8587 7.24123 17.1145 7.24123C17.3701 7.24123 17.5774 7.44449 17.5774 7.69556C17.5774 8.20238 17.986 8.60425 18.5024 8.60425C19.0188 8.60425 19.4237 8.2022 19.4237 7.69556C19.4237 7.18875 19.0186 6.78771 18.5024 6.78771C17.4861 6.78771 16.6516 5.96945 16.6516 4.97201C16.6516 4.13263 17.2454 3.42581 18.0382 3.22094V2.24218C18.0382 1.93943 18.2695 1.78825 18.5007 1.78825L18.5005 1.78815ZM30.2274 11.4129C29.6662 11.4129 29.1036 11.6241 28.6774 12.0424L25.7488 14.9167C26.1333 15.4391 26.3631 16.0778 26.3631 16.7704C26.3631 18.5229 24.912 19.9471 23.1264 19.9471H18.0852C17.4133 20.0063 17.4133 18.9835 18.0852 19.0427H23.1266C24.4159 19.0427 25.4383 18.0355 25.4383 16.7704C25.4383 16.325 25.3059 15.9169 25.0842 15.5699C24.6764 14.9378 23.9593 14.5141 23.1266 14.5015L13.4131 14.5024C11.4481 14.5026 10.3567 15.4996 9.44302 16.3943L15.8646 22.6968C15.964 22.6814 16.0688 22.6711 16.189 22.6711H24.0515C25.6407 22.6711 26.9687 21.9008 27.9097 20.5638C28.9691 19.058 30.9529 16.2406 31.8291 15.0212C32.1481 14.5772 32.3523 14.069 32.372 13.5407C32.3916 13.0122 32.2053 12.4622 31.7775 12.0423C31.3514 11.6241 30.7887 11.4129 30.2275 11.4129L30.2274 11.4129ZM7.86303 16.3165C7.74492 16.3163 7.62703 16.3603 7.537 16.4487L4.762 19.173C4.58031 19.3506 4.58031 19.6391 4.762 19.8166L12.1641 27.0774C12.3446 27.2535 12.6359 27.2535 12.8164 27.0774L15.5914 24.353C15.7708 24.1759 15.7708 23.8899 15.5914 23.7128L8.18926 16.4484C8.09986 16.3607 7.98134 16.3165 7.86324 16.3163L7.86303 16.3165Z" fill="#543B8B"/>
</g>
<defs>
<clipPath id="clip0_133_276">
<rect width="37" height="27.1837" fill="white"/>
</clipPath>
</defs>
</svg>
