<svg width="19" height="24" viewBox="0 0 19 24" fill="none" xmlns="http://www.w3.org/2000/svg">
<g clip-path="url(#clip0_133_285)">
<path d="M7.45921 0.481144L2.00279 3.42186H2.00259C1.40926 3.74197 0.91367 4.21653 0.568286 4.79545C0.222932 5.37437 0.0408502 6.03602 0.0412605 6.71012V13.6999C0.0412605 15.6815 0.983158 17.5049 3.00782 19.4435C4.38926 20.7646 6.13803 21.9907 7.82675 23.1768L8.73141 23.8145V23.8143C8.87704 23.9176 9.05113 23.9731 9.22961 23.9731C9.4081 23.9731 9.58217 23.9176 9.7278 23.8143L10.6325 23.1766C12.3212 21.9905 14.0786 20.7644 15.4514 19.4433C17.4788 17.5049 18.4207 15.6815 18.4207 13.6997V6.70992C18.4207 6.03623 18.2382 5.3752 17.8929 4.79684C17.5475 4.21853 17.0523 3.74438 16.4594 3.42464L11.003 0.483918H11.0028C9.8974 -0.113416 8.5655 -0.114441 7.45909 0.480913L7.45921 0.481144ZM13.1166 8.11448C13.2781 7.94601 13.5011 7.85006 13.7346 7.84905C13.968 7.84785 14.192 7.9416 14.3551 8.10847C14.5181 8.27553 14.6065 8.5017 14.5998 8.73508C14.5932 8.96847 14.4923 9.18901 14.3198 9.34667L8.28903 15.2221H8.28923C8.12857 15.3785 7.91323 15.466 7.68907 15.4662H7.65161C7.41624 15.4584 7.19408 15.3547 7.03705 15.179L4.16525 11.8218C3.96533 11.5878 3.90524 11.2651 4.0078 10.9748C4.11036 10.6846 4.35997 10.471 4.66247 10.4147C4.96515 10.3584 5.27483 10.4678 5.47498 10.7018L7.75524 13.361L13.1166 8.11448Z" fill="#543B8B"/>
</g>
<defs>
<clipPath id="clip0_133_285">
<rect width="18.4615" height="24" fill="white"/>
</clipPath>
</defs>
</svg>
