<svg width="25" height="25" viewBox="0 0 25 25" fill="none" xmlns="http://www.w3.org/2000/svg">
<circle cx="12.125" cy="12.125" r="11.4514" stroke="#00B140" stroke-width="1.34722"/>
<path d="M6.0625 16.1668V15.0625L8.54994 12.7286C9.05913 12.258 9.41006 11.8709 9.60272 11.5673C9.80227 11.2561 9.90204 10.9259 9.90204 10.5768C9.90204 10.1973 9.79195 9.8975 9.57176 9.67739C9.35157 9.44969 9.07289 9.33584 8.73573 9.33584C8.41921 9.33584 8.13365 9.43072 7.87906 9.62047C7.63134 9.81022 7.35955 10.1138 7.06367 10.5313L6.16571 9.75709C6.53728 9.18025 6.91917 8.759 7.31138 8.49336C7.71047 8.22012 8.21622 8.0835 8.82862 8.0835C9.53735 8.0835 10.1119 8.30361 10.5523 8.74382C10.9927 9.18404 11.2129 9.76468 11.2129 10.4857C11.2129 10.7969 11.1784 11.0777 11.1096 11.3282C11.0408 11.5711 10.917 11.8216 10.7381 12.0796C10.566 12.3301 10.3768 12.5616 10.1704 12.7741C9.97085 12.979 9.69217 13.2447 9.33437 13.5711L7.84809 14.9373H11.2851V16.1668H6.0625Z" fill="#00B140"/>
<path d="M15.9374 16.1668V14.3794H12.294L12.0566 13.3775L16.0716 8.14042H17.1554V13.2295H18.1875V14.3794H17.1554V16.1668H15.9374ZM13.5635 13.2295H15.9374V10.0759L13.5635 13.2295Z" fill="#00B140"/>
</svg>
