<svg version="1.2" xmlns="http://www.w3.org/2000/svg" viewBox="0 0 360 250" width="360" height="250">
	<title>payway-mc-svg</title>
	<style>
		.s0 { fill: #000000 } 
		.s1 { fill: #ff5a00 } 
		.s2 { fill: #eb001b } 
		.s3 { fill: #f79e1b } 
	</style>
	<path id="XMLID_1775_" fill-rule="evenodd" class="s0" d="m93.3 223.6v-11.7c0-3.5-1.6-5.5-4.6-5.5-2.9 0-5.1 1.8-5.1 5.5v11.7h-4.6v-11.7c0-3.5-1.5-5.5-4.6-5.5-3.1 0-5 1.8-5 5.5v11.7h-4.7v-21.2h4.7v2.7c1.7-2.4 3.9-3.1 6.1-3.1 3.3 0 5.5 1.3 7 3.7 2-2.8 4.9-3.7 7.5-3.7 5.3 0 8.4 3.3 8.4 8.4v13.2zm73.4-21.2v4.2h-7.5v9.5c0 2.2 0.9 3.5 3.1 3.5 1.1 0 2.6-0.2 3.9-1.1l1.4 4c-1.6 0.8-3.8 1.5-5.7 1.5-5.3 0-7.3-2.8-7.3-7.7v-9.7h-4.1v-4.2h4.1v-6.4h4.6v6.4zm42.3-0.2l-1.4 4.4c-0.9-0.2-2-0.5-2.8-0.5-2.9 0-4.4 2-4.4 5.5v11.9h-4.6v-21.1h4.6v2.6c1.1-1.7 2.8-3 5.5-3 0.8 0 2.2 0 3.1 0.2zm-64.2 5.7c-1.3-0.6-3.9-1.7-6.6-1.7-2.4 0-4 0.8-4 2.4 0 1.3 1.6 1.7 3.6 1.9l2.2 0.3c4.3 0.6 7.2 2.6 7.2 6.4 0 3.9-3.5 6.8-9.7 6.8-3.3 0-6.6-0.9-9-2.7l2.2-3.5c1.5 1.1 4 2.2 7.1 2.2 3 0 4.8-1.1 4.8-2.6 0-1.1-1.3-1.8-3.7-2.2l-2.2-0.3c-4.7-0.6-7.3-2.6-7.3-6.1 0-4.2 3.5-6.8 8.8-6.8 3.3 0 6.4 0.6 8.6 2.2zm127.6-5.7l-1.3 4.3c-0.9-0.2-2-0.4-2.9-0.4-2.9 0-4.4 2-4.4 5.5v11.9h-4.6v-21.1h4.6v2.6c1.1-1.7 2.9-3.1 5.5-3.1 0.9 0 2.2 0 3.1 0.3zm-50.8-0.2c3.1 0 5.3 0.6 7.5 2.4l-2.2 3.7c-1.8-1.3-3.5-2-5.5-2-3.7 0.2-6.4 2.9-6.4 6.9 0 4.1 2.7 6.8 6.4 6.8 2 0 3.7-0.7 5.5-2l2.2 3.7c-2.2 1.8-4.4 2.5-7.5 2.5-6.8 0-11.2-4.7-11.2-11 0-6.4 4.4-11.1 11.2-11zm31.5 21.5h-4.7v-2.6c-1.3 2-3.5 3.1-6.6 3.1-5.9 0-10.5-4.7-10.5-11 0-6.4 4.6-11 10.5-11 2.9 0 5.1 1.1 6.6 3v-2.6h4.7zm-10.6-3.8c3.7 0 6.4-3 6.4-6.8 0-3.9-2.7-6.8-6.4-6.8-4 0-6.4 3.1-6.4 6.8 0 3.7 2.5 6.6 6.4 6.8zm-51.8-6.6c0 0.7 0 1.1 0 1.8h-15.6c0.6 3.7 3.5 5 6.3 5 2.2 0 4.4-0.8 6.2-2.2l2.2 3.3c-2.4 2-5.5 2.9-8.6 2.9-6.4 0-10.8-4.4-10.8-11 0-6.6 4.4-11 10.6-11 5.9 0 9.9 4.4 9.7 11.2zm-15.4-2.2h11c-0.5-3.3-2.4-5-5.3-5-3.3 0-5.3 2.2-5.7 5zm120.2 12.6h-4.6v-2.7c-1.4 2-3.6 3.1-6.6 3.1-6 0-10.6-4.6-10.6-11 0-6.4 4.6-11 10.6-11 2.8 0 5 1.1 6.6 3.1v-11h4.6zm-10.6-3.7c3.8 0 6.4-3.1 6.4-6.9 0-3.9-2.6-6.8-6.4-6.8-3.9 0-6.3 3.1-6.3 6.8 0 3.8 2.4 6.6 6.3 6.9zm-160.6 3.7h-4.6v-2.6c-1.4 1.9-3.6 3-6.6 3-6 0-10.6-4.6-10.6-11 0-6.4 4.6-11 10.6-11 2.8 0 5 1.1 6.6 3.1v-2.6h4.6zm-10.8-3.8c3.8 0 6.4-3.1 6.4-6.8 0-3.9-2.6-6.8-6.4-6.8-3.9 0-6.3 3.1-6.3 6.8 0 3.7 2.4 6.6 6.3 6.8z"/>
	<g id="Layer">
		<path id="rect19" class="s1" d="m145.2 42h69.2v124.5h-69.2z"/>
		<path id="XMLID_330_" class="s2" d="m179.9 166.5c-13.4 10.6-30.3 17-48.8 17-43.7 0-79.1-35.5-79.1-79.3 0-43.8 35.4-79.2 79.1-79.2 18.5 0 35.4 6.4 48.8 17-18.2 14.5-30.1 36.9-30.1 62.2 0 25.4 11.8 48 30.1 62.3z"/>
		<path id="path22" class="s3" d="m307.8 104.2c0 43.8-35.4 79.3-79.1 79.3-18.5 0-35.4-6.4-48.8-17 18.5-14.5 30.1-36.9 30.1-62.3 0-25.3-11.9-47.7-30.1-62.2 13.4-10.6 30.3-17 48.8-17 43.7 0 79.1 35.7 79.1 79.2z"/>
	</g>
</svg>