<svg version="1.2" xmlns="http://www.w3.org/2000/svg" viewBox="0 0 720 300" width="720" height="300">
	<title>payway-visa-svg</title>
	<style>
		.s0 { fill: #00579f } 
		.s1 { fill: #faa61a } 
	</style>
	<g id="g4158">
		<path id="polygon9" class="s0" d="m318.5 246.9h-50l31.3-193.4h50z"/>
		<path id="path11" class="s0" d="m493 100l-4.5-2.1c-9-3.9-21-7.8-37.2-7.4-19.8 0-28.6 8.5-28.8 16.7 0 9.1 10.7 15 28.2 23.9 28.8 13.8 42.2 30.6 42 52.6-0.5 40.2-34.6 66.1-87.1 66.1-22.4-0.2-44-5-55.8-10.3l7-43.4 6.6 3.1c16.3 7.2 27 10.3 46.9 10.3 14.4 0 29.9-6 30.1-19 0-8.4-6.6-14.6-26-24-18.9-9.3-44.2-24.7-43.8-52.5 0.2-37.7 35-64 84.4-64 19.3 0 35 4.3 44.9 8.2z"/>
		<path id="path13" fill-rule="evenodd" class="s0" d="m668.4 246.9h-46.3c0 0-4.5-22.2-6-29-7.4 0-58.4 0-64.2 0-1.8 5.1-10.5 29-10.5 29h-52.5l74.3-177.3c5.2-12.6 14.2-16.1 26.2-16.1h38.7zm-60.6-68.5c-2-9.7-11.5-56-11.5-56l-3.5-16.6c-2.4 7.2-6.8 18.9-6.6 18.5 0 0-15.8 43-19.9 54.1 9.9 0 33.7 0 41.5 0z"/>
		<path id="path15" class="s0" d="m279.6 53.5l-78.6 193.2h-52.9l-44.8-169.1c31.7 16.6 60.1 50.2 69.1 81l5.4 26.8 49-131.9z"/>
		<path id="path17" class="s1" d="m154.9 69.8l17.5 88.8c-17.1-46.5-58.6-85.1-121.4-101.2l0.8-3.9h80.5c10.9 0.4 19.7 3.9 22.6 16.3z"/>
	</g>
</svg>