<svg width="31" height="31" viewBox="0 0 31 31" fill="none" xmlns="http://www.w3.org/2000/svg">
<circle cx="15.5" cy="15.5" r="15.5" fill="#FF3800"/>
<g clip-path="url(#clip0_133_301)">
<path d="M23.5642 13.2571L16.5939 11.1054C16.2099 10.9877 15.7994 10.9877 15.4155 11.1054L8.38294 13.2571C8.15432 13.3547 8.00586 13.5792 8.00586 13.8277C8.00586 14.0763 8.15432 14.3009 8.38294 14.3983L9.62318 14.7766H9.62339C9.35034 15.1105 9.19357 15.5241 9.17675 15.9548C8.93734 16.0841 8.78327 16.3292 8.77061 16.6009C8.75794 16.8725 8.88855 17.1311 9.11467 17.282L8.49444 20.1719H8.49465C8.46807 20.2917 8.49777 20.4171 8.57501 20.5125C8.65225 20.6078 8.76874 20.6628 8.89145 20.6617H10.2992C10.4105 20.647 10.5108 20.5864 10.5756 20.4946C10.6404 20.4026 10.6639 20.288 10.6404 20.1782L10.0202 17.2882C10.2448 17.1402 10.3761 16.8856 10.3659 16.6169C10.3557 16.348 10.2058 16.104 9.97054 15.9734C9.99068 15.6011 10.1834 15.2596 10.4915 15.0494L15.403 16.5565C15.7863 16.6782 16.1981 16.6782 16.5814 16.5565L23.5826 14.4045C23.8139 14.3053 23.9622 14.0761 23.958 13.8246C23.9539 13.5732 23.7983 13.3489 23.5641 13.2571L23.5642 13.2571Z" fill="white"/>
<path d="M16.7984 17.3194C16.2612 17.4861 15.686 17.4861 15.1489 17.3194L11.5086 16.2031L11.1489 19.0497C11.1489 19.9428 13.3132 20.662 15.9737 20.662C18.6342 20.662 20.7985 19.9426 20.7985 19.0497L20.4388 16.2031L16.7984 17.3194Z" fill="white"/>
</g>
<defs>
<clipPath id="clip0_133_301">
<rect width="16" height="9.67442" fill="white" transform="translate(8 11)"/>
</clipPath>
</defs>
</svg>
