<svg width="96" height="38" viewBox="0 0 96 38" fill="none" xmlns="http://www.w3.org/2000/svg">
<g clip-path="url(#clip0_133_166)">
<path d="M85.9524 37.5581H58.2495C53.5362 37.5581 49.6787 33.8778 49.6787 29.3811C49.6787 24.8844 53.5362 21.2041 58.2495 21.2041H85.9524C90.6656 21.2041 94.5232 24.8844 94.5232 29.3811C94.5232 33.8778 90.6656 37.5581 85.9524 37.5581Z" fill="#FF3900"/>
<path d="M8.92422 0C11.3946 0 13.5723 0.863674 15.1598 2.30957V6.76546C14.4009 4.15293 11.9801 2.33107 8.92422 2.33107C5.23112 2.33107 2.44333 4.99086 2.44333 8.5143C2.44333 12.0377 5.23112 14.6974 8.92422 14.6974C11.7368 14.6974 14.0113 13.1571 14.9414 10.8711H6.47871V8.53789H15.162V14.7211C13.5721 16.1671 11.3946 17.0307 8.92652 17.0307C3.83951 17.0307 9.90061e-07 13.3676 9.90061e-07 8.5143C-0.0022509 3.66312 3.8372 0 8.92422 0Z" fill="#353434"/>
<path d="M17.3613 0.350586H30.5687V2.68376H19.8069V7.35019H30.5687V9.68343H19.8069V14.3498H30.5687V16.6829H17.3613V0.350586Z" fill="#353434"/>
<path d="M32.7695 0.350098H37.9062L45.5852 16.6825V0.350098H48.0309V16.6825H42.8941L35.2151 0.350098V16.6825H32.7695V0.350098Z" fill="#353434"/>
<path d="M49.7424 14.3493H55.9778V2.68327H49.7424V0.350098H64.6612V2.68327H58.4258V14.3493H64.6612V16.6825H49.7424V14.3493Z" fill="#353434"/>
<path d="M65.8828 9.03027V0.350586H68.3285V9.07755C68.3285 12.3904 70.9205 14.8181 74.395 14.8181C77.8177 14.8181 80.5584 12.3926 80.5584 9.07755V0.350586H83.004V9.03027C83.004 13.628 79.1894 17.1514 74.395 17.1514C69.6005 17.1514 65.8828 13.6043 65.8828 9.03027Z" fill="#353434"/>
<path d="M84.1067 15.5396V11.2685C84.3522 13.2751 86.4781 14.605 88.4844 14.605C89.9281 14.605 91.4433 13.8359 91.4433 12.2955C91.4433 9.00618 84.1067 9.91505 84.1067 4.80599C84.1067 1.8433 86.5275 0.0922852 89.4864 0.0922852C90.8558 0.0922852 92.2025 0.489756 93.3015 1.28253V5.57509C93.0808 3.68449 91.4659 2.42552 89.5113 2.42552C88.0681 2.42552 86.5524 3.07863 86.5524 4.66632C86.5524 8.09741 93.889 7.44213 93.889 12.3663C93.889 15.3055 91.3939 16.9405 88.5093 16.9405C86.9419 16.9405 85.3542 16.4721 84.1067 15.5396Z" fill="#353434"/>
<path d="M59.7393 30.9713C59.7393 30.6788 59.6229 30.4527 59.3899 30.2928C59.1609 30.129 58.7585 29.9887 58.182 29.8717C57.6102 29.7548 57.1542 29.6143 56.8154 29.4505C56.4799 29.2869 56.2306 29.0919 56.0673 28.8657C55.908 28.6396 55.8282 28.3706 55.8282 28.0586C55.8282 27.54 56.0571 27.1014 56.5149 26.7427C56.9765 26.3839 57.5649 26.2046 58.2803 26.2046C59.0322 26.2046 59.6414 26.3898 60.1071 26.7603C60.5769 27.1306 60.8119 27.6044 60.8119 28.1815H59.6719C59.6719 27.8852 59.5389 27.6297 59.2736 27.4153C59.0119 27.2009 58.6809 27.0936 58.2803 27.0936C57.8677 27.0936 57.5446 27.1794 57.3116 27.3509C57.0789 27.5225 56.9622 27.7467 56.9622 28.0235C56.9622 28.2847 57.0706 28.4817 57.2871 28.6143C57.5036 28.7468 57.894 28.8736 58.458 28.9944C59.0262 29.1153 59.4859 29.2596 59.8376 29.4272C60.1888 29.5949 60.4486 29.7976 60.6157 30.0355C60.7874 30.2694 60.8733 30.556 60.8733 30.8952C60.8733 31.4606 60.6365 31.9148 60.162 32.258C59.688 32.5972 59.0733 32.7668 58.3173 32.7668C57.786 32.7668 57.3157 32.6771 56.9073 32.4978C56.4983 32.3184 56.1776 32.0689 55.9445 31.7491C55.716 31.4255 55.6016 31.0765 55.6016 30.7022H56.7356C56.7559 31.0648 56.9073 31.3534 57.1893 31.5678C57.4749 31.7783 57.8511 31.8836 58.3173 31.8836C58.746 31.8836 59.0894 31.8018 59.3469 31.638C59.6086 31.4703 59.7393 31.2481 59.7393 30.9713ZM67.9537 29.5559C67.9537 30.519 67.7229 31.2948 67.2609 31.8836C66.7994 32.4723 66.174 32.7668 65.3853 32.7668C64.5803 32.7668 63.9466 32.5231 63.4851 32.0357V35.0828H62.3506V26.3216H63.3868L63.4422 27.0234C63.9037 26.4775 64.5453 26.2046 65.3668 26.2046C66.1639 26.2046 66.7934 26.4912 67.2549 27.0644C67.7211 27.6375 67.9537 28.4349 67.9537 29.4564V29.5559ZM66.8197 29.433C66.8197 28.7195 66.6605 28.1561 66.3416 27.7428C66.0226 27.3295 65.5856 27.1228 65.0299 27.1228C64.3431 27.1228 63.828 27.4134 63.4851 27.9943V31.018C63.8243 31.5951 64.3431 31.8836 65.0419 31.8836C65.5856 31.8836 66.0166 31.6789 66.3356 31.2695C66.6582 30.8561 66.8197 30.2441 66.8197 29.433ZM73.4954 32.6498C73.4303 32.5251 73.3773 32.3028 73.3362 31.983C72.8091 32.5056 72.1796 32.7668 71.448 32.7668C70.794 32.7668 70.2568 32.5913 69.8359 32.2404C69.4191 31.8856 69.2105 31.4372 69.2105 30.8952C69.2105 30.2363 69.4722 29.7255 69.9951 29.3629C70.5222 28.9963 71.262 28.8131 72.2142 28.8131H73.3177V28.3159C73.3177 27.9378 73.1991 27.6375 72.9623 27.4153C72.7251 27.1892 72.3757 27.076 71.9142 27.076C71.5094 27.076 71.1702 27.1735 70.8965 27.3685C70.6228 27.5634 70.4857 27.7993 70.4857 28.0761H69.3453C69.3453 27.7603 69.462 27.4562 69.6946 27.1637C69.9319 26.8674 70.2508 26.6335 70.6509 26.4619C71.0557 26.2904 71.4993 26.2046 71.9816 26.2046C72.7459 26.2046 73.3445 26.3879 73.7774 26.7544C74.2108 27.117 74.4356 27.618 74.4522 28.2575V31.1701C74.4522 31.751 74.5297 32.2131 74.6848 32.5562V32.6498H73.4954ZM71.6137 31.8252C71.9691 31.8252 72.3065 31.7374 72.6249 31.562C72.9439 31.3865 73.1746 31.1584 73.3177 30.8777V29.5793H72.4288C71.0396 29.5793 70.3445 29.9673 70.3445 30.7432C70.3445 31.0823 70.4631 31.3475 70.7003 31.5385C70.9371 31.7296 71.2417 31.8252 71.6137 31.8252ZM78.8903 31.8836C79.2946 31.8836 79.6482 31.7666 79.9505 31.5327C80.2533 31.2987 80.4208 31.0063 80.4536 30.6554H81.5262C81.5059 31.018 81.3748 31.3631 81.1339 31.6906C80.8929 32.0182 80.5699 32.2794 80.1651 32.4743C79.7649 32.6692 79.3399 32.7668 78.8903 32.7668C77.9871 32.7668 77.2676 32.4802 76.7322 31.907C76.2009 31.33 75.9356 30.5423 75.9356 29.5442V29.3629C75.9356 28.7468 76.0537 28.199 76.2909 27.7194C76.5282 27.2398 76.8674 26.8674 77.3086 26.6023C77.754 26.3372 78.2792 26.2046 78.8839 26.2046C79.6279 26.2046 80.2449 26.4171 80.7356 26.8421C81.2299 27.2671 81.4934 27.8188 81.5262 28.4972H80.4536C80.4208 28.0878 80.2574 27.7526 79.9629 27.4913C79.6726 27.2262 79.3131 27.0936 78.8839 27.0936C78.3079 27.0936 77.8602 27.2925 77.5417 27.6902C77.2269 28.0839 77.0696 28.6552 77.0696 29.4038V29.6085C77.0696 30.3376 77.2269 30.8991 77.5417 31.2929C77.8565 31.6867 78.306 31.8836 78.8903 31.8836ZM85.554 32.7668C84.6545 32.7668 83.9229 32.4861 83.3589 31.9246C82.7949 31.3592 82.5134 30.6047 82.5134 29.6611V29.4623C82.5134 28.8346 82.638 28.275 82.8873 27.7837C83.1406 27.2886 83.4919 26.9025 83.9414 26.6257C84.3951 26.345 84.8857 26.2046 85.4128 26.2046C86.2749 26.2046 86.9456 26.4755 87.4237 27.0176C87.9019 27.5595 88.1409 28.3355 88.1409 29.3453V29.7957H83.6474C83.6636 30.4195 83.8537 30.9245 84.2174 31.3104C84.5852 31.6925 85.0509 31.8836 85.6149 31.8836C86.0156 31.8836 86.3548 31.8057 86.6326 31.6497C86.9105 31.4937 87.1537 31.287 87.3623 31.0297L88.0551 31.5443C87.4989 32.3593 86.6654 32.7668 85.554 32.7668ZM85.4128 27.0936C84.9549 27.0936 84.5709 27.2535 84.2603 27.5732C83.9497 27.8891 83.7577 28.3336 83.6839 28.9067H87.0065V28.8248C86.9737 28.275 86.8186 27.85 86.5408 27.5498C86.2629 27.2457 85.8868 27.0936 85.4128 27.0936Z" fill="white"/>
<path d="M52.651 27.6839C52.5777 27.6849 52.5043 27.6897 52.4309 27.6893C52.2047 27.6879 51.9795 27.6803 51.7543 27.6666C51.5295 27.653 51.3047 27.6331 51.0809 27.6082C50.857 27.5833 50.6341 27.5532 50.4117 27.5181C50.1892 27.483 49.9672 27.4433 49.7461 27.3992C49.525 27.355 49.3049 27.3068 49.0852 27.2548C48.8655 27.2028 48.6467 27.1471 48.4294 27.0884C48.2115 27.0296 47.9941 26.9678 47.7781 26.9034C47.5626 26.839 47.348 26.7722 47.1338 26.7033C46.7064 26.5656 46.2795 26.4189 45.8534 26.2688C45.4271 26.1187 45.0011 25.9648 44.5749 25.8109C44.1488 25.657 43.7224 25.5033 43.2951 25.3543C42.8678 25.2053 42.4398 25.0607 42.0101 24.9253C41.7952 24.8575 41.58 24.792 41.3643 24.7293C41.1486 24.6666 40.9324 24.6072 40.7157 24.5505C40.499 24.4939 40.2819 24.4405 40.0641 24.391C39.8462 24.3415 39.6272 24.2955 39.4081 24.2542C39.1889 24.213 38.9691 24.1761 38.7484 24.1442C38.5278 24.1123 38.3067 24.0853 38.0844 24.0637C37.8622 24.0422 37.6393 24.0264 37.4153 24.0163C37.1913 24.0063 36.9663 24.0021 36.7403 24.0046C36.5077 24.0071 36.2754 24.0173 36.0435 24.0342C35.8116 24.051 35.5798 24.0747 35.3495 24.1057C35.1193 24.1366 34.8899 24.1744 34.6622 24.2191C34.4344 24.2639 34.2085 24.3156 33.9843 24.3738C33.76 24.4321 33.5379 24.4968 33.3181 24.5684C33.2701 24.584 33.2236 24.6037 33.1758 24.62C34.0637 27.3216 36.4516 30.1191 40.72 33.5509C42.2526 34.7831 43.5912 35.791 43.695 35.791C44.2002 35.791 48.1243 32.6379 50.1167 30.6308C51.1173 29.6233 51.961 28.6383 52.651 27.6838V27.6839Z" fill="#FECB00"/>
<path d="M38.0104 16.7912C37.0049 16.7994 36.0237 17.0122 35.2865 17.4485C33.3823 18.5757 32.7407 19.7961 32.7705 22.2341C32.7803 23.0302 32.9129 23.821 33.1755 24.62C33.2232 24.6037 33.2698 24.584 33.3178 24.5684C33.5376 24.4968 33.7597 24.4321 33.984 24.3738C34.2083 24.3155 34.4342 24.2638 34.6619 24.2191C34.8896 24.1744 35.119 24.1366 35.3492 24.1056C35.5795 24.0748 35.8113 24.051 36.0432 24.0342C36.2751 24.0173 36.5074 24.0072 36.74 24.0046C36.966 24.0021 37.191 24.0063 37.415 24.0163C37.639 24.0263 37.8619 24.0422 38.0841 24.0637C38.3063 24.0852 38.5275 24.1122 38.7481 24.1441C38.9687 24.1761 39.1886 24.2129 39.4078 24.2542C39.6269 24.2954 39.8459 24.3415 40.0637 24.391C40.2816 24.4405 40.4987 24.4939 40.7153 24.5505C40.932 24.6072 41.1484 24.6665 41.364 24.7293C41.5798 24.792 41.795 24.8575 42.0098 24.9253C42.4396 25.0607 42.8675 25.2053 43.2948 25.3543C43.7221 25.5033 44.1485 25.657 44.5747 25.8108C45.0009 25.9647 45.4268 26.1186 45.8531 26.2688C46.2792 26.4189 46.7062 26.5656 47.1335 26.7033C47.3477 26.7722 47.5623 26.839 47.7779 26.9034C47.9939 26.9678 48.2112 27.0296 48.4291 27.0883C48.6465 27.1471 48.8652 27.2027 49.0849 27.2547C49.3042 27.3067 49.5248 27.355 49.7459 27.3991C49.9669 27.4432 50.1889 27.483 50.4114 27.5181C50.6339 27.5532 50.8568 27.5832 51.0806 27.6081C51.3045 27.6331 51.5292 27.6529 51.754 27.6666C51.9792 27.6803 52.2045 27.688 52.4306 27.6893C52.504 27.6897 52.5774 27.6849 52.6508 27.6838C55.4897 23.7581 55.6937 20.3497 53.122 18.0282C52.2479 17.2389 51.5615 16.982 49.9997 16.86C47.5591 16.6693 45.9828 17.3396 44.7892 19.0761C43.8387 20.4589 43.5338 20.5724 43.2262 19.6591C43.1073 19.306 42.5077 18.5638 41.8938 18.0096C41.0022 17.2048 39.48 16.7792 38.0104 16.7913V16.7912Z" fill="#0068C2"/>
<path opacity="0.217903" d="M46.4364 33.0905C51.2336 28.2852 53.0465 25.3043 53.0525 22.2109C53.0567 19.7547 52.2582 18.3795 50.3225 17.5126L48.7598 16.8125L50.389 16.9839C53.3853 17.2992 55.285 20.0779 54.7238 23.3242C54.3005 25.7721 52.6644 28.1524 49.0888 31.5232C44.9471 35.4275 42.8895 36.6433 46.4364 33.0905ZM41.7411 19.9998C40.9609 18.6672 40.3062 18.0536 39.126 17.5487C37.5945 16.8936 37.5821 16.8751 38.6724 16.8689C40.7623 16.8569 43.9243 19.5288 43.6265 21.0551C43.4236 22.0953 42.7461 21.716 41.7411 19.9998Z" fill="white"/>
<path opacity="0.367623" d="M36.8294 18.4112C36.3712 18.4085 35.8815 18.6822 35.2869 19.2425C33.6267 20.6528 34.6241 26.2583 35.3651 22.6957C35.5021 22.1082 36.4109 21.2909 36.9995 20.8809C38.3612 19.9322 38.5941 19.5927 37.8766 18.9166C37.5231 18.5834 37.1858 18.4135 36.8294 18.4112ZM47.9353 18.4889C47.2855 18.4849 46.5987 18.9479 46.1344 19.7939C45.4031 21.1266 45.8152 21.1945 46.8863 21.1945C47.3884 21.1945 47.8763 20.8082 48.4527 20.3364C49.4252 19.5402 49.457 19.4366 48.8889 18.8925C48.606 18.6215 48.2755 18.491 47.9353 18.4889Z" fill="white"/>
</g>
<defs>
<clipPath id="clip0_133_166">
<rect width="96" height="38" fill="white"/>
</clipPath>
</defs>
</svg>
