<svg width="21" height="21" viewBox="0 0 21 21" fill="none" xmlns="http://www.w3.org/2000/svg">
<g clip-path="url(#clip0_133_148)">
<path d="M20.9777 6.17406C20.9285 5.05825 20.7481 4.29114 20.4896 3.62643C20.2229 2.92085 19.8127 2.28915 19.2752 1.76402C18.7501 1.23071 18.1142 0.816306 17.4168 0.553819C16.7483 0.295338 15.9852 0.114898 14.8694 0.0657019C13.7452 0.0123391 13.3883 0 10.5372 0C7.68606 0 7.32919 0.0123391 6.20921 0.0615355C5.0934 0.110732 4.32629 0.291332 3.66174 0.549653C2.95601 0.816306 2.32431 1.22654 1.79917 1.76402C1.26586 2.28915 0.851622 2.92502 0.588975 3.62242C0.330494 4.29114 0.150054 5.05408 0.100858 6.16989C0.0474954 7.29403 0.0351562 7.65091 0.0351562 10.5021C0.0351562 13.3532 0.0474954 13.7101 0.0966917 14.83C0.145888 15.9459 0.326488 16.713 0.584969 17.3777C0.851622 18.0833 1.26586 18.715 1.79917 19.2401C2.32431 19.7734 2.96017 20.1878 3.65757 20.4503C4.32629 20.7088 5.08923 20.8892 6.2052 20.9384C7.32502 20.9878 7.68205 20.9999 10.5332 20.9999C13.3843 20.9999 13.7412 20.9878 14.8612 20.9384C15.977 20.8892 16.7441 20.7088 17.4087 20.4503C18.82 19.9046 19.9358 18.7888 20.4814 17.3777C20.7397 16.709 20.9203 15.9459 20.9695 14.83C21.0187 13.7101 21.0311 13.3532 21.0311 10.5021C21.0311 7.65091 21.0269 7.29403 20.9777 6.17406ZM19.0866 14.748C19.0414 15.7736 18.8692 16.3274 18.7256 16.6966C18.3727 17.6115 17.6466 18.3376 16.7318 18.6904C16.3626 18.834 15.8047 19.0063 14.7831 19.0513C13.6755 19.1007 13.3433 19.1128 10.5414 19.1128C7.73942 19.1128 7.40306 19.1007 6.29943 19.0513C5.27384 19.0063 4.72002 18.834 4.35081 18.6904C3.89554 18.5222 3.48114 18.2555 3.14478 17.9068C2.79608 17.5663 2.52942 17.1561 2.36116 16.7008C2.21758 16.3316 2.04531 15.7736 2.00028 14.7522C1.95093 13.6445 1.93875 13.3122 1.93875 10.5102C1.93875 7.70828 1.95093 7.37192 2.00028 6.26844C2.04531 5.24285 2.21758 4.68903 2.36116 4.31982C2.52942 3.86439 2.79608 3.45015 3.14894 3.11363C3.48931 2.76493 3.89955 2.49828 4.35497 2.33017C4.72419 2.18659 5.28217 2.01432 6.3036 1.96913C7.41123 1.91994 7.74359 1.9076 10.5454 1.9076C13.3515 1.9076 13.6837 1.91994 14.7873 1.96913C15.8129 2.01432 16.3667 2.18659 16.7359 2.33017C17.1912 2.49828 17.6056 2.76493 17.942 3.11363C18.2907 3.45416 18.5573 3.86439 18.7256 4.31982C18.8692 4.68903 19.0414 5.24686 19.0866 6.26844C19.1358 7.37608 19.1482 7.70828 19.1482 10.5102C19.1482 13.3122 19.1358 13.6404 19.0866 14.748Z" fill="white"/>
<path d="M10.5391 5.10742C7.56092 5.10742 5.14453 7.52365 5.14453 10.502C5.14453 13.4804 7.56092 15.8966 10.5391 15.8966C13.5175 15.8966 15.9337 13.4804 15.9337 10.502C15.9337 7.52365 13.5175 5.10742 10.5391 5.10742ZM10.5391 14.0014C8.60702 14.0014 7.03979 12.4343 7.03979 10.502C7.03979 8.56975 8.60702 7.00268 10.5391 7.00268C12.4714 7.00268 14.0385 8.56975 14.0385 10.502C14.0385 12.4343 12.4714 14.0014 10.5391 14.0014Z" fill="white"/>
<path d="M17.4066 4.89416C17.4066 5.58964 16.8427 6.15355 16.1471 6.15355C15.4516 6.15355 14.8877 5.58964 14.8877 4.89416C14.8877 4.19852 15.4516 3.63477 16.1471 3.63477C16.8427 3.63477 17.4066 4.19852 17.4066 4.89416Z" fill="white"/>
</g>
<defs>
<clipPath id="clip0_133_148">
<rect width="21" height="21" fill="white"/>
</clipPath>
</defs>
</svg>
