<svg width="26" height="26" viewBox="0 0 26 26" fill="none" xmlns="http://www.w3.org/2000/svg">
<path d="M20.9311 6.0255C20.7666 5.9404 20.6064 5.84712 20.4512 5.746C20.0002 5.44778 19.5866 5.09643 19.2195 4.6995C18.2997 3.64758 17.9563 2.5805 17.8306 1.83408H17.835C17.7299 1.21333 17.7732 0.8125 17.7808 0.8125H13.5937V17.0008C13.5937 17.2174 13.5937 17.433 13.5851 17.6453C13.5851 17.6713 13.5818 17.6952 13.5807 17.7244C13.5807 17.7353 13.5807 17.7482 13.5775 17.7602V17.7699C13.5335 18.3506 13.3475 18.9116 13.0358 19.4035C12.7241 19.8954 12.2963 20.3032 11.79 20.5909C11.2618 20.8914 10.6643 21.049 10.0566 21.0481C8.10664 21.0481 6.52498 19.4578 6.52498 17.4937C6.52498 15.5285 8.10664 13.9382 10.0566 13.9382C10.4261 13.9382 10.7933 13.9967 11.1443 14.1115L11.1497 9.8475C10.0837 9.70997 9.00082 9.79492 7.96932 10.097C6.93782 10.3991 5.98014 10.9117 5.15673 11.6025C4.43507 12.2293 3.82833 12.9771 3.36381 13.8125C3.18723 14.1169 2.51989 15.3422 2.43973 17.329C2.38881 18.4557 2.72789 19.6257 2.88931 20.1078V20.1186C2.99006 20.4024 3.38439 21.3731 4.02573 22.191C4.5429 22.8475 5.15396 23.4242 5.83923 23.9027V23.8918L5.84898 23.9027C7.87481 25.2785 10.1227 25.1886 10.1227 25.1886C10.5116 25.1723 11.8149 25.1886 13.2947 24.4877C14.936 23.7098 15.8698 22.5518 15.8698 22.5518C16.4668 21.8596 16.9416 21.0709 17.2738 20.2193C17.653 19.2227 17.7786 18.0288 17.7786 17.5522V8.96242C17.8296 8.99275 18.5066 9.44017 18.5066 9.44017C18.5066 9.44017 19.4816 10.0653 21.0016 10.4715C22.0914 10.7608 23.5615 10.8225 23.5615 10.8225V6.66575C23.0469 6.72208 22.0015 6.55958 20.9301 6.02658L20.9311 6.0255Z" fill="white"></path>
</svg>