<svg width="24" height="24" viewBox="0 0 24 24" fill="none" xmlns="http://www.w3.org/2000/svg">
<g clip-path="url(#clip0_133_156)">
<path d="M19.915 13.0282C19.527 12.5382 19.638 12.3202 19.915 11.8822C19.92 11.8772 23.123 7.45124 23.453 5.95024L23.455 5.94924C23.619 5.40224 23.455 5.00024 22.662 5.00024H20.038C19.37 5.00024 19.062 5.34524 18.897 5.73124C18.897 5.73124 17.561 8.92924 15.671 11.0022C15.061 11.6012 14.779 11.7932 14.446 11.7932C14.282 11.7932 14.027 11.6012 14.027 11.0542V5.94924C14.027 5.29324 13.84 5.00024 13.287 5.00024H9.161C8.742 5.00024 8.493 5.30624 8.493 5.59124C8.493 6.21324 9.438 6.35624 9.536 8.10624V11.9032C9.536 12.7352 9.385 12.8882 9.05 12.8882C8.158 12.8882 5.993 9.67724 4.71 6.00224C4.451 5.28924 4.198 5.00124 3.525 5.00124H0.9C0.151 5.00124 0 5.34624 0 5.73224C0 6.41424 0.892 9.80524 4.148 14.2852C6.318 17.3432 9.374 19.0002 12.154 19.0002C13.825 19.0002 14.029 18.6322 14.029 17.9992C14.029 15.0772 13.878 14.8012 14.715 14.8012C15.103 14.8012 15.771 14.9932 17.331 16.4682C19.114 18.2172 19.407 19.0002 20.405 19.0002H23.029C23.777 19.0002 24.156 18.6322 23.938 17.9062C23.439 16.3792 20.067 13.2382 19.915 13.0282Z" fill="white"/>
</g>
<defs>
<clipPath id="clip0_133_156">
<rect width="24" height="24" fill="white"/>
</clipPath>
</defs>
</svg>
