<svg width="20" height="20" viewBox="0 0 20 20" fill="none" xmlns="http://www.w3.org/2000/svg">
<g opacity="0.7">
<path d="M3.52001 1.6935L10 8.1735L16.4533 1.72016C16.5664 1.59979 16.7027 1.50349 16.8539 1.43705C17.0051 1.3706 17.1682 1.33538 17.3333 1.3335C17.687 1.3335 18.0261 1.47397 18.2762 1.72402C18.5262 1.97407 18.6667 2.31321 18.6667 2.66683C18.6698 2.8303 18.6395 2.99268 18.5776 3.144C18.5156 3.29533 18.4235 3.43241 18.3067 3.54683L11.7867 10.0002L18.3067 16.5202C18.5264 16.7352 18.6553 17.0263 18.6667 17.3335C18.6667 17.6871 18.5262 18.0263 18.2762 18.2763C18.0261 18.5264 17.687 18.6668 17.3333 18.6668C17.1634 18.6739 16.9939 18.6455 16.8355 18.5835C16.6771 18.5216 16.5334 18.4273 16.4133 18.3068L10 11.8268L3.53335 18.2935C3.42069 18.4099 3.2861 18.5028 3.13735 18.5668C2.9886 18.6309 2.82863 18.6649 2.66668 18.6668C2.31306 18.6668 1.97392 18.5264 1.72387 18.2763C1.47382 18.0263 1.33335 17.6871 1.33335 17.3335C1.33024 17.17 1.36057 17.0076 1.42247 16.8563C1.48438 16.705 1.57656 16.5679 1.69335 16.4535L8.21335 10.0002L1.69335 3.48016C1.47359 3.26517 1.34473 2.97405 1.33335 2.66683C1.33335 2.31321 1.47382 1.97407 1.72387 1.72402C1.97392 1.47397 2.31306 1.3335 2.66668 1.3335C2.98668 1.3375 3.29335 1.46683 3.52001 1.6935Z" fill="#543B8B"/>
</g>
</svg>
