<svg width="25" height="25" viewBox="0 0 25 25" fill="none" xmlns="http://www.w3.org/2000/svg">
<path d="M22.4512 4.16649C22.3566 4.15674 22.2612 4.15674 22.1665 4.16649H2.72206C2.59744 4.16842 2.47364 4.1871 2.354 4.22205L12.3887 14.2151L22.4512 4.16649Z" fill="#FF3800"/>
<path d="M23.4792 5.13184L13.3681 15.2013C13.1079 15.46 12.7559 15.6052 12.3889 15.6052C12.022 15.6052 11.67 15.46 11.4098 15.2013L1.38894 5.20822C1.35814 5.32145 1.3418 5.43812 1.34033 5.55545V19.4443C1.34033 19.8127 1.48666 20.166 1.74713 20.4264C2.0076 20.6869 2.36086 20.8332 2.72922 20.8332H22.1737C22.542 20.8332 22.8953 20.6869 23.1558 20.4264C23.4162 20.166 23.5626 19.8127 23.5626 19.4443V5.55545C23.557 5.41076 23.5289 5.26783 23.4792 5.13184ZM3.68061 19.4443H2.71533V18.4513L7.76394 13.4443L8.74311 14.4235L3.68061 19.4443ZM22.1598 19.4443H21.1876L16.1251 14.4235L17.1042 13.4443L22.1528 18.4513L22.1598 19.4443Z" fill="#FF3800"/>
</svg>
