<svg width="8" height="7" viewBox="0 0 8 7" fill="none" xmlns="http://www.w3.org/2000/svg">
<path d="M3.72599 5.7151C3.75657 5.74934 3.79749 5.77733 3.84522 5.79667C3.89296 5.81601 3.94607 5.82611 3.99999 5.82611C4.05392 5.82611 4.10703 5.81601 4.15476 5.79667C4.2025 5.77733 4.24341 5.74934 4.27399 5.7151L7.27399 2.37483C7.30872 2.3363 7.32908 2.29117 7.33287 2.24435C7.33666 2.19753 7.32373 2.1508 7.29549 2.10925C7.26725 2.06769 7.22477 2.0329 7.17267 2.00864C7.12058 1.98439 7.06085 1.97161 6.99999 1.97168H0.999994C0.939275 1.97187 0.879774 1.98482 0.827888 2.00913C0.776002 2.03344 0.733695 2.0682 0.705517 2.10966C0.677339 2.15112 0.664356 2.19771 0.667964 2.24443C0.671572 2.29116 0.691634 2.33624 0.725994 2.37483L3.72599 5.7151Z" fill="#322847"/>
</svg>
