<svg width="21" height="21" viewBox="0 0 21 21" fill="none" xmlns="http://www.w3.org/2000/svg">
<path d="M13.3415 14.0963L14.8115 12.6263C15.0095 12.4307 15.26 12.2969 15.5326 12.241C15.8052 12.1851 16.0882 12.2095 16.3471 12.3113L18.1387 13.0266C18.4004 13.1328 18.6248 13.3141 18.7837 13.5477C18.9425 13.7813 19.0286 14.0566 19.0312 14.3391V17.6203C19.0297 17.8125 18.9893 18.0023 18.9125 18.1784C18.8356 18.3545 18.724 18.5133 18.5842 18.6451C18.4444 18.7769 18.2794 18.8791 18.099 18.9455C17.9187 19.0118 17.7268 19.041 17.535 19.0313C4.98089 18.2503 2.44776 7.61909 1.9687 3.55034C1.94646 3.35053 1.96678 3.14829 2.02832 2.9569C2.08986 2.76551 2.19122 2.58932 2.32574 2.43992C2.46027 2.29052 2.6249 2.1713 2.8088 2.09009C2.99271 2.00889 3.19173 1.96754 3.39276 1.96878H6.56245C6.8453 1.96961 7.12143 2.05505 7.35533 2.2141C7.58923 2.37315 7.77019 2.59854 7.87495 2.86128L8.59026 4.65284C8.69543 4.91079 8.72226 5.19401 8.6674 5.46712C8.61255 5.74023 8.47844 5.99113 8.28183 6.18846L6.81183 7.65846C6.81183 7.65846 7.65839 13.3875 13.3415 14.0963Z" fill="#FF3800"/>
</svg>
