<svg width="24" height="27" viewBox="0 0 24 27" fill="none" xmlns="http://www.w3.org/2000/svg">
<line x1="0.5" y1="-2.18557e-08" x2="0.500001" y2="27" stroke="#2F2F34" stroke-opacity="0.2"/>
<path d="M19.726 16.5228C19.7566 16.5673 19.7975 16.6036 19.8452 16.6287C19.8929 16.6537 19.9461 16.6668 20 16.6668C20.0539 16.6668 20.107 16.6537 20.1547 16.6287C20.2025 16.6036 20.2434 16.5673 20.274 16.5228L23.274 12.1895C23.3087 12.1395 23.3291 12.081 23.3329 12.0202C23.3366 11.9595 23.3237 11.8989 23.2955 11.845C23.2672 11.7911 23.2248 11.7459 23.1727 11.7145C23.1206 11.683 23.0608 11.6664 23 11.6665H17C16.9393 11.6668 16.8798 11.6836 16.8279 11.7151C16.776 11.7466 16.7337 11.7917 16.7055 11.8455C16.6773 11.8993 16.6643 11.9597 16.6679 12.0203C16.6716 12.081 16.6916 12.1394 16.726 12.1895L19.726 16.5228Z" fill="#2F2F34"/>
</svg>
