<svg width="302" height="301" viewBox="0 0 302 301" fill="none" xmlns="http://www.w3.org/2000/svg">
<path d="M64.3844 165.628C64.3844 165.628 58.9182 167.073 63.5175 178.878C68.1168 190.678 71.5241 196.637 71.5241 196.637C71.5241 196.637 72.2766 199.346 70.0431 199.527C67.8097 199.714 63.0539 198.455 61.8078 201.044C60.5135 203.729 62.2713 206.558 66.1422 209.273C70.0131 211.988 78.2665 218.249 79.0129 218.821C79.7414 219.381 80.4036 220.669 78.8986 221.042C77.3996 221.41 66.4191 221.452 66.7502 226.659C67.0813 231.866 79.1032 237.664 80.4036 238.32C81.7039 238.976 81.9688 239.584 81.7882 240.319C81.6015 241.053 77.9113 240.716 74.7869 240.854C71.6625 240.993 68.0686 241.703 68.5141 244.689C68.9596 247.675 75.732 254.544 93.4971 258.108L101.841 259.221L107.108 252.611C117.517 237.772 117.679 228.128 115.94 225.66C114.2 223.192 111.106 225.16 108.752 227.207C106.398 229.26 103.954 232.047 103.316 231.644C102.678 231.24 102.449 230.62 102.936 229.242C103.424 227.869 108.126 215.378 104.773 211.38C101.419 207.383 93.4429 214.926 92.1004 215.691C90.758 216.461 90.3426 215.071 90.4871 214.162C90.6315 213.235 92.2931 203.007 93.2202 198.371C94.1472 193.736 93.467 190.473 90.6797 189.425C87.9948 188.414 85.4182 192.604 83.6724 194.007C81.9266 195.415 80.6083 192.935 80.6083 192.935C80.6083 192.935 78.9648 186.271 74.1548 174.556C69.3448 162.841 64.276 165.658 64.276 165.658" fill="#EBEBEB"/>
<path d="M102.076 261.225C98.578 252.605 92.6122 237.188 87.423 223.974C82.2337 210.766 77.5261 198.81 74.0706 190.177C72.3429 185.867 70.9402 182.381 69.965 179.955C69.4834 178.757 69.1101 177.818 68.8513 177.174C68.7309 176.861 68.6345 176.62 68.5683 176.446C68.5081 176.283 68.478 176.193 68.478 176.193C68.478 176.193 68.5202 176.271 68.5924 176.434C68.6646 176.602 68.767 176.843 68.8994 177.15C69.1703 177.794 69.5556 178.721 70.0613 179.913C71.0666 182.315 72.4934 185.795 74.2392 190.105C77.7368 198.726 82.4745 210.669 87.6577 223.877C92.847 237.091 98.7827 252.52 102.238 261.153" fill="#E0E0E0"/>
<path d="M68.3875 203.061C68.3935 203.042 68.5982 203.127 68.9534 203.283C69.3146 203.44 69.8263 203.681 70.4524 203.988C71.7106 204.596 73.4263 205.487 75.3045 206.498C77.1526 207.503 78.8202 208.412 80.0964 209.111C80.6743 209.424 81.162 209.683 81.5533 209.893C81.8964 210.074 82.083 210.188 82.077 210.2C82.071 210.218 81.8663 210.14 81.5051 209.984C81.1439 209.827 80.6322 209.586 80.0061 209.273C78.754 208.647 77.0503 207.738 75.1721 206.727C73.3179 205.733 71.6443 204.836 70.3621 204.15C69.7842 203.843 69.2965 203.584 68.8992 203.374C68.5621 203.187 68.3755 203.079 68.3875 203.061Z" fill="#E0E0E0"/>
<path d="M82.7031 209.718C82.6369 209.688 84.3104 206.07 86.4415 201.64C88.5726 197.209 90.3485 193.639 90.4147 193.669C90.4809 193.699 88.8073 197.317 86.6763 201.748C84.5452 206.185 82.7693 209.755 82.7031 209.718Z" fill="#E0E0E0"/>
<path d="M89.7524 230.367C89.7404 230.355 89.8789 230.18 90.1437 229.885C90.4447 229.548 90.824 229.127 91.2695 228.627C92.2206 227.568 93.527 226.093 94.9116 224.413C96.2962 222.74 97.5002 221.181 98.361 220.043C98.7644 219.507 99.1075 219.055 99.3844 218.7C99.6252 218.381 99.7697 218.213 99.7818 218.225C99.7938 218.237 99.6854 218.423 99.4627 218.761C99.246 219.098 98.9209 219.573 98.5055 220.157C97.6808 221.325 96.5009 222.902 95.1102 224.588C93.7256 226.267 92.3892 227.73 91.4079 228.76C90.9143 229.271 90.5049 229.687 90.216 229.964C89.933 230.235 89.7705 230.379 89.7524 230.367Z" fill="#E0E0E0"/>
<path d="M75.4791 227.195C75.4852 227.177 75.6838 227.201 76.051 227.261C76.4664 227.339 76.9841 227.43 77.5861 227.538C78.8804 227.785 80.6684 228.14 82.6369 228.555C84.6055 228.965 86.3874 229.356 87.6696 229.645C88.2656 229.789 88.7773 229.91 89.1867 230.006C89.5419 230.096 89.7405 230.157 89.7345 230.175C89.7285 230.193 89.5298 230.169 89.1626 230.109C88.7472 230.03 88.2295 229.94 87.6275 229.832C86.3332 229.585 84.5453 229.23 82.5767 228.814C80.6082 228.405 78.8263 228.014 77.544 227.725C76.948 227.58 76.4363 227.46 76.027 227.363C75.6718 227.273 75.4731 227.213 75.4791 227.195Z" fill="#E0E0E0"/>
<path d="M79.386 246.212C79.392 246.194 79.6509 246.23 80.1144 246.302C80.6261 246.392 81.2883 246.513 82.083 246.651C83.7445 246.958 86.0381 247.398 88.5665 247.903C91.0949 248.409 93.3825 248.878 95.032 249.228C95.8206 249.402 96.4768 249.547 96.9885 249.661C97.446 249.769 97.6988 249.836 97.6988 249.854C97.6928 249.872 97.434 249.836 96.9704 249.763C96.4587 249.673 95.7965 249.553 95.0019 249.414C93.3403 249.107 91.0467 248.668 88.5183 248.162C85.9899 247.656 83.7023 247.187 82.0529 246.838C81.2642 246.663 80.6081 246.519 80.0964 246.404C79.6388 246.296 79.386 246.23 79.386 246.212Z" fill="#E0E0E0"/>
<path d="M97.2897 249.643C97.2776 249.631 97.4462 249.408 97.7713 249.017C98.1264 248.589 98.59 248.042 99.1438 247.373C100.3 245.983 101.895 244.056 103.587 241.883C105.284 239.71 106.771 237.699 107.837 236.242C108.348 235.538 108.776 234.96 109.101 234.515C109.402 234.105 109.576 233.889 109.589 233.895C109.601 233.907 109.456 234.147 109.185 234.569C108.908 234.996 108.505 235.604 107.987 236.351C106.958 237.844 105.495 239.873 103.791 242.046C102.094 244.225 100.474 246.139 99.2823 247.5C98.6863 248.18 98.1927 248.722 97.8435 249.089C97.5004 249.456 97.3017 249.655 97.2897 249.643Z" fill="#E0E0E0"/>
<path d="M228.983 277.937L187.186 208.755C185.892 206.606 186.578 203.819 188.727 202.519L230.994 176.982C233.143 175.688 235.93 176.374 237.23 178.523L279.027 247.705C280.322 249.848 279.635 252.641 277.492 253.935L235.226 279.472C233.071 280.773 230.283 280.08 228.983 277.937Z" fill="#EBEBEB"/>
<path d="M262.882 247.283C259.95 249.053 256.133 248.114 254.363 245.182C252.593 242.251 253.532 238.434 256.464 236.664C259.396 234.894 263.213 235.833 264.982 238.765C266.758 241.697 265.813 245.513 262.882 247.283Z" fill="white"/>
<path d="M263.55 254.88C263.026 254.88 262.503 254.814 261.979 254.688C260.293 254.272 258.867 253.225 257.97 251.738C256.115 248.668 257.103 244.658 260.173 242.804C263.243 240.95 267.252 241.937 269.107 245.008C270.961 248.078 269.973 252.087 266.903 253.941C265.874 254.561 264.724 254.88 263.55 254.88ZM263.532 242.467C262.467 242.467 261.425 242.756 260.492 243.322C259.144 244.135 258.192 245.429 257.813 246.958C257.434 248.487 257.675 250.076 258.493 251.425C260.179 254.212 263.815 255.109 266.602 253.424C269.39 251.738 270.287 248.102 268.601 245.315C267.788 243.966 266.494 243.015 264.965 242.636C264.483 242.521 264.008 242.467 263.532 242.467Z" fill="white"/>
<path d="M207.01 200.839L202.742 203.422L202.477 202.982L206.36 200.641L205.752 199.635L206.143 199.4L207.01 200.839Z" fill="white"/>
<path d="M205.782 207.575L205.391 207.81L203.579 204.812L203.892 204.626L206.703 205.348C207.468 205.541 207.811 205.462 208.106 205.282C208.6 204.981 208.696 204.451 208.299 203.801C207.998 203.301 207.612 203.006 207.119 202.922L207.197 202.446C207.787 202.537 208.329 202.94 208.72 203.59C209.244 204.457 209.135 205.27 208.419 205.703C208.01 205.95 207.564 206.046 206.661 205.811L204.355 205.222L205.782 207.575Z" fill="white"/>
<path d="M209.231 211.633L208.714 210.778L207.594 211.459L207.329 211.019L208.455 210.339L206.998 207.931L207.317 207.738L211.513 208.292L211.808 208.78L207.732 208.262L208.852 210.116L209.839 209.52L210.098 209.948L209.111 210.544L209.629 211.398L209.231 211.633Z" fill="white"/>
<path d="M213.187 218.177L212.669 217.322L211.549 218.002L211.284 217.563L212.41 216.882L210.953 214.474L211.272 214.282L215.468 214.836L215.763 215.323L211.688 214.805L212.808 216.66L213.795 216.064L214.054 216.491L213.066 217.087L213.584 217.942L213.187 218.177Z" fill="white"/>
<path d="M215.577 221.831C214.849 222.271 213.976 222.108 213.344 221.061C212.97 220.447 212.832 219.73 212.97 219.2H213.446C213.326 219.646 213.41 220.26 213.747 220.808C214.186 221.536 214.77 221.705 215.288 221.392C215.836 221.061 215.974 220.513 215.318 219.423L214.77 218.514L217.046 217.437L218.461 219.772L218.069 220.007L216.889 218.057L215.439 218.731L215.77 219.279C216.546 220.579 216.335 221.374 215.577 221.831Z" fill="white"/>
<path d="M218.147 226.039C217.346 226.52 216.455 226.201 215.956 225.37C215.27 224.239 215.685 223.143 217.033 222.33C218.484 221.451 219.718 221.788 220.423 222.95C220.657 223.336 220.808 223.733 220.802 224.106L220.338 224.142C220.35 223.835 220.23 223.51 220.037 223.191C219.484 222.27 218.532 222.035 217.371 222.734C217.274 222.794 217.154 222.872 217.033 222.962C217.629 222.89 218.195 223.233 218.556 223.823C219.068 224.672 218.93 225.569 218.147 226.039ZM217.87 225.617C218.43 225.28 218.538 224.648 218.141 223.986C217.75 223.336 217.076 223.131 216.546 223.45C216.076 223.733 215.866 224.395 216.311 225.13C216.69 225.75 217.304 225.954 217.87 225.617Z" fill="white"/>
<path d="M221.627 231.914C220.911 232.347 220.05 232.161 219.43 231.125C219.056 230.511 218.912 229.789 219.05 229.259H219.526C219.406 229.704 219.496 230.325 219.833 230.884C220.26 231.595 220.826 231.781 221.356 231.462C221.868 231.155 221.988 230.589 221.507 229.795L221.32 229.488L221.645 229.295L223.842 229.584L222.524 227.399L222.915 227.164L224.577 229.909L224.264 230.096L222.012 229.807C222.518 230.752 222.313 231.498 221.627 231.914Z" fill="white"/>
<path d="M224.264 236.17C223.463 236.652 222.572 236.332 222.073 235.502C221.386 234.37 221.802 233.274 223.15 232.462C224.601 231.583 225.835 231.92 226.539 233.082C226.774 233.467 226.925 233.864 226.919 234.237L226.455 234.274C226.467 233.967 226.347 233.642 226.154 233.322C225.6 232.401 224.649 232.167 223.487 232.865C223.391 232.925 223.27 233.003 223.15 233.094C223.752 233.021 224.312 233.365 224.673 233.955C225.191 234.803 225.046 235.694 224.264 236.17ZM223.993 235.742C224.553 235.405 224.661 234.773 224.264 234.111C223.866 233.461 223.198 233.256 222.668 233.575C222.199 233.858 221.988 234.52 222.434 235.255C222.807 235.875 223.427 236.086 223.993 235.742Z" fill="white"/>
<path d="M229.633 238.289L229.32 238.476L224.281 239.078L223.992 238.602L228.935 238.012L227.604 235.815L226.804 236.297L226.545 235.863L227.737 235.147L229.633 238.289Z" fill="white"/>
<path d="M233.324 244.393L233.011 244.58L227.972 245.182L227.683 244.706L232.626 244.117L231.301 241.919L230.5 242.401L230.242 241.967L231.434 241.251L233.324 244.393Z" fill="white"/>
<path d="M232.782 250.462C232.023 250.919 231.168 250.564 230.554 249.541C229.934 248.517 230.031 247.608 230.783 247.151C231.295 246.844 231.831 246.916 232.33 247.337C232.24 246.802 232.42 246.368 232.866 246.097C233.564 245.676 234.353 246.007 234.901 246.91C235.449 247.813 235.376 248.68 234.684 249.101C234.239 249.372 233.769 249.324 233.329 248.987C233.474 249.637 233.293 250.155 232.782 250.462ZM232.517 250.004C233.041 249.685 233.101 249.035 232.643 248.282C232.186 247.524 231.59 247.277 231.06 247.596C230.53 247.915 230.47 248.559 230.927 249.318C231.385 250.07 231.987 250.323 232.517 250.004ZM232.992 248.072C233.396 248.734 233.931 248.951 234.395 248.674C234.877 248.385 234.919 247.783 234.527 247.145C234.136 246.501 233.6 246.266 233.119 246.555C232.649 246.832 232.589 247.404 232.992 248.072Z" fill="white"/>
<path d="M236.274 254.014C234.823 254.893 233.583 254.556 232.884 253.394C232.65 253.008 232.499 252.611 232.505 252.244L232.963 252.208C232.951 252.515 233.071 252.84 233.264 253.159C233.817 254.08 234.769 254.315 235.93 253.61C236.027 253.55 236.147 253.472 236.268 253.382C235.666 253.454 235.106 253.111 234.744 252.521C234.233 251.672 234.377 250.781 235.154 250.305C235.955 249.824 236.845 250.143 237.345 250.974C238.037 252.111 237.622 253.201 236.274 254.014ZM236.755 252.9C237.225 252.617 237.435 251.955 236.99 251.22C236.617 250.606 236.003 250.396 235.431 250.739C234.871 251.076 234.757 251.708 235.16 252.37C235.551 253.02 236.225 253.219 236.755 252.9Z" fill="white"/>
<path d="M240.987 257.077L236.719 259.66L236.454 259.221L240.337 256.879L239.729 255.873L240.12 255.639L240.987 257.077Z" fill="white"/>
<path d="M239.765 263.814L239.374 264.049L237.562 261.051L237.875 260.864L240.686 261.587C241.45 261.779 241.794 261.701 242.089 261.52C242.582 261.219 242.679 260.69 242.281 260.04C241.98 259.54 241.595 259.245 241.101 259.161L241.18 258.685C241.769 258.781 242.311 259.179 242.703 259.829C243.226 260.696 243.118 261.508 242.402 261.942C241.992 262.189 241.547 262.279 240.644 262.05L238.338 261.46L239.765 263.814Z" fill="white"/>
<path d="M242.914 267.143C242.197 267.577 241.336 267.39 240.716 266.355C240.343 265.741 240.199 265.018 240.337 264.489H240.813C240.692 264.934 240.783 265.554 241.12 266.114C241.547 266.824 242.113 267.011 242.643 266.692C243.154 266.385 243.275 265.819 242.793 265.024L242.607 264.717L242.932 264.525L245.129 264.814L243.811 262.628L244.202 262.394L245.857 265.139L245.544 265.325L243.293 265.036C243.805 265.981 243.6 266.728 242.914 267.143Z" fill="white"/>
<path d="M218.688 236.949L216.833 238.07L237.51 272.288L239.365 271.167L218.688 236.949Z" fill="white"/>
<path d="M225.054 255.848L223.199 256.969L233.804 274.518L235.659 273.397L225.054 255.848Z" fill="white"/>
<path d="M216.221 207.762L210.634 198.521C209.78 197.106 210.237 195.27 211.646 194.415L217.256 191.026C218.671 190.171 220.507 190.629 221.362 192.038L226.943 201.278C227.797 202.693 227.34 204.529 225.931 205.378L220.321 208.767C218.912 209.628 217.076 209.177 216.221 207.762Z" fill="#E0E0E0"/>
<path d="M212.061 194.169L212.747 193.754L217.214 201.146C217.732 202.001 218.846 202.272 219.694 201.76C220.549 201.243 220.826 200.117 220.308 199.28L215.842 191.888L216.528 191.472L220.995 198.865C221.741 200.099 221.344 201.706 220.11 202.453C218.876 203.199 217.268 202.802 216.522 201.568L212.061 194.169Z" fill="#EBEBEB"/>
<path d="M220.268 201.889L219.577 202.306L222.639 207.384L223.33 206.967L220.268 201.889Z" fill="#EBEBEB"/>
<path d="M251.985 222.768L229.678 185.845L226.509 187.759L248.817 224.682L251.985 222.768Z" fill="white"/>
<path d="M126.499 20.2329C126.041 26.7345 126.505 38.8407 124.133 44.9149C121.761 50.9891 118.606 57.2439 112.683 59.9589C105.386 63.306 96.814 61.8853 89.0301 63.8478C76.8276 66.918 68.0083 78.1092 64.2458 90.1131C60.4773 102.117 60.8987 114.976 61.3502 127.551L123.615 136.19C123.615 136.19 123.94 110.888 129.37 103.983C134.8 97.0782 160.596 90.8656 169.114 71.9507C176.784 54.9322 179.095 27.9445 179.095 27.9445L126.499 20.2329Z" fill="#F5F5F5"/>
<path d="M141.705 37.3299L140.904 35.843C140.796 35.843 140.682 35.8369 140.561 35.8189L139.417 35.6804L139.249 37.0289L138.797 36.9747L139.321 32.7246L140.91 32.9233C141.988 33.0557 142.578 33.6818 142.464 34.5968C142.379 35.265 141.97 35.6865 141.326 35.8129L142.181 37.3961L141.705 37.3299ZM142.024 34.5366C142.108 33.8564 141.705 33.4109 140.856 33.3086L139.724 33.1701L139.46 35.3012L140.591 35.4396C141.446 35.542 141.94 35.2048 142.024 34.5366Z" fill="#E0E0E0"/>
<path d="M146.244 37.4982L146.196 37.8895L143.192 37.5162L143.716 33.2661L146.629 33.6273L146.581 34.0186L144.119 33.7116L143.932 35.2226L146.13 35.4935L146.081 35.8788L143.884 35.6079L143.692 37.1851L146.244 37.4982Z" fill="#E0E0E0"/>
<path d="M147.111 35.8431C147.268 34.597 148.327 33.7963 149.61 33.9589C150.23 34.0371 150.759 34.308 151.09 34.7716L150.771 35.0244C150.47 34.6271 150.061 34.4224 149.579 34.3682C148.55 34.2418 147.689 34.898 147.563 35.9094C147.436 36.9147 148.117 37.7635 149.14 37.8899C149.628 37.9501 150.067 37.8538 150.458 37.5348L150.705 37.8538C150.278 38.221 149.694 38.3655 149.068 38.2873C147.797 38.1187 146.961 37.0833 147.111 35.8431Z" fill="#E0E0E0"/>
<path d="M154.648 38.5343L154.6 38.9256L151.596 38.5524L152.12 34.3022L155.033 34.6634L154.985 35.0547L152.523 34.7477L152.336 36.2587L154.534 36.5296L154.486 36.9149L152.288 36.644L152.096 38.2213L154.648 38.5343Z" fill="#E0E0E0"/>
<path d="M156.183 34.8018L156.635 34.8559L156.111 39.1061L155.659 39.0519L156.183 34.8018Z" fill="#E0E0E0"/>
<path d="M161.162 36.8965C161.047 37.7995 160.325 38.269 159.247 38.1306L158.103 37.9921L157.935 39.3346L157.483 39.2804L158.007 35.0303L159.596 35.2289C160.686 35.3614 161.276 35.9875 161.162 36.8965ZM160.71 36.8423C160.794 36.162 160.391 35.7166 159.542 35.6142L158.41 35.4758L158.146 37.6008L159.277 37.7393C160.132 37.8476 160.626 37.5105 160.71 36.8423Z" fill="#E0E0E0"/>
<path d="M162.95 36.0359L161.457 35.8493L161.505 35.458L164.942 35.8854L164.894 36.2767L163.401 36.0901L162.925 39.9489L162.474 39.8947L162.95 36.0359Z" fill="#E0E0E0"/>
<path d="M156.225 47.7086C156.213 47.7929 150.542 47.0946 143.559 46.1434C136.576 45.1923 130.923 44.3495 130.935 44.2652C130.947 44.1809 136.618 44.8792 143.601 45.8364C150.579 46.7816 156.231 47.6244 156.225 47.7086Z" fill="#E0E0E0"/>
<path d="M155.539 52.777C155.527 52.8613 149.856 52.163 142.873 51.2118C135.89 50.2606 130.237 49.4178 130.249 49.3336C130.261 49.2493 135.932 49.9476 142.915 50.9048C149.898 51.8499 155.551 52.6927 155.539 52.777Z" fill="#E0E0E0"/>
<path d="M153.221 57.9484C153.209 58.0327 147.538 57.3343 140.555 56.3832C133.572 55.432 127.919 54.5892 127.931 54.5049C127.943 54.4207 133.614 55.119 140.597 56.0762C147.58 57.0213 153.233 57.8641 153.221 57.9484Z" fill="#E0E0E0"/>
<path d="M149.001 63.1618C148.989 63.246 143.319 62.5477 136.335 61.5966C129.352 60.6454 123.699 59.8026 123.711 59.7183C123.723 59.634 129.394 60.3324 136.378 61.2895C143.361 62.2347 149.014 63.0775 149.001 63.1618Z" fill="#E0E0E0"/>
<path d="M142.277 68.369C142.265 68.4532 136.594 67.7549 129.611 66.7977C122.628 65.8466 116.975 65.0038 116.987 64.9195C116.999 64.8352 122.67 65.5335 129.653 66.4907C136.636 67.4419 142.289 68.2787 142.277 68.369Z" fill="#E0E0E0"/>
<path d="M167.561 49.4002C167.549 49.4845 166.152 49.328 164.449 49.0511C162.745 48.7741 161.373 48.4792 161.385 48.3949C161.397 48.3106 162.793 48.4671 164.497 48.744C166.207 49.021 167.579 49.3159 167.561 49.4002Z" fill="#E0E0E0"/>
<path d="M167.344 53.9207C167.332 54.005 165.936 53.8485 164.232 53.5716C162.528 53.2947 161.156 52.9997 161.168 52.9154C161.18 52.8311 162.576 52.9876 164.28 53.2646C165.984 53.5415 167.356 53.8365 167.344 53.9207Z" fill="#E0E0E0"/>
<path d="M165.809 60.1764C165.797 60.2607 164.401 60.0981 162.691 59.8152C160.987 59.5322 159.597 59.2373 159.633 59.171C159.621 59.0627 161.041 59.2252 162.745 59.5082C164.449 59.7851 165.821 60.0921 165.809 60.1764Z" fill="#E0E0E0"/>
<path d="M163.594 65.4674C163.582 65.5517 162.185 65.3891 160.476 65.1062C158.772 64.8232 157.381 64.5283 157.417 64.462C157.405 64.3537 158.826 64.5162 160.53 64.7992C162.233 65.0761 163.612 65.3831 163.594 65.4674Z" fill="#E0E0E0"/>
<path d="M158.832 70.4942C158.82 70.5785 157.424 70.416 155.714 70.133C154.01 69.8501 152.62 69.5551 152.656 69.4889C152.644 69.3805 154.064 69.5431 155.768 69.826C157.472 70.109 158.844 70.41 158.832 70.4942Z" fill="#E0E0E0"/>
<path d="M136.528 74.726C136.516 74.8103 128.004 73.6785 117.511 72.1916C107.018 70.7046 98.5236 69.4344 98.5357 69.3501C98.5477 69.2658 107.06 70.3976 117.553 71.8845C128.046 73.3655 136.54 74.6417 136.528 74.726Z" fill="#E0E0E0"/>
<path d="M132.133 80.048C132.133 80.06 131.989 80.048 131.712 80.0118C131.405 79.9697 131.008 79.9215 130.514 79.8553C129.442 79.6988 127.949 79.4821 126.119 79.2172C122.381 78.6393 117.276 77.8567 111.635 76.9838C105.982 76.0928 100.865 75.2621 97.1691 74.648C95.345 74.335 93.8641 74.0761 92.7926 73.8955C92.2748 73.7992 91.8775 73.727 91.6066 73.6668C91.3357 73.6066 91.1973 73.5704 91.1973 73.5584C91.2033 73.5464 91.3478 73.5644 91.6187 73.6005C91.9257 73.6427 92.317 73.6969 92.8106 73.7691C93.8822 73.9316 95.3751 74.1544 97.2052 74.4253C100.944 75.0032 106.049 75.7978 111.689 76.6707C117.324 77.5737 122.423 78.3925 126.155 78.9945C127.979 79.3015 129.466 79.5543 130.538 79.7349C131.032 79.8252 131.423 79.8975 131.724 79.9516C131.995 79.9998 132.133 80.0359 132.133 80.048Z" fill="#E0E0E0"/>
<path d="M124.187 84.9178C124.241 84.972 123.633 84.9058 122.622 84.7794C121.598 84.6469 120.123 84.4423 118.305 84.1834C114.663 83.6536 109.637 82.8951 104.092 82.0222C98.5417 81.1553 93.521 80.3487 89.891 79.7467C88.103 79.4457 86.6462 79.1988 85.5927 79.0182C85.1111 78.9279 84.7258 78.8617 84.4248 78.8015C84.1599 78.7473 84.0215 78.7172 84.0215 78.7052C84.0215 78.6932 84.166 78.7052 84.4369 78.7413C84.7379 78.7835 85.1292 78.8316 85.6108 78.8978C86.6643 79.0544 88.1271 79.2651 89.9211 79.5299C93.5933 80.0958 98.6019 80.8664 104.134 81.7152C109.661 82.5941 114.669 83.3827 118.335 83.9667C121.653 84.5025 123.416 84.7914 124.187 84.9178Z" fill="#E0E0E0"/>
<path d="M150.873 77.652C150.861 77.7362 149.465 77.5737 147.755 77.2908C146.051 77.0078 144.661 76.7128 144.697 76.6466C144.685 76.5383 146.106 76.7008 147.809 76.9837C149.519 77.2607 150.892 77.5677 150.873 77.652Z" fill="#E0E0E0"/>
<path d="M144.739 81.065C144.727 81.1493 143.331 80.9868 141.621 80.7038C139.917 80.4209 138.527 80.1259 138.563 80.0597C138.551 79.9513 139.971 80.1139 141.675 80.3968C143.385 80.6737 144.757 80.9808 144.739 81.065Z" fill="#E0E0E0"/>
<path d="M136.48 86.8146C136.468 86.8988 135.071 86.7363 133.361 86.4534C131.658 86.1704 130.267 85.8754 130.303 85.8092C130.291 85.7009 131.712 85.8634 133.416 86.1463C135.125 86.4293 136.498 86.7303 136.48 86.8146Z" fill="#E0E0E0"/>
<path d="M120.695 95.8923C120.683 95.9766 110.16 94.4295 97.1932 92.4369C84.2261 90.4442 73.7212 88.7526 73.7393 88.6683C73.7513 88.584 84.2743 90.1312 97.2414 92.1238C110.202 94.1224 120.707 95.808 120.695 95.8923Z" fill="#E0E0E0"/>
<path d="M114.392 107.288C114.38 107.372 110.931 106.885 106.687 106.199C102.443 105.512 99.0174 104.886 99.0355 104.802C99.0475 104.718 102.497 105.205 106.741 105.892C110.979 106.572 114.405 107.198 114.392 107.288Z" fill="#E0E0E0"/>
<path d="M280.677 279.178C280.677 279.262 222.614 279.334 151.006 279.334C79.374 279.334 21.3171 279.262 21.3171 279.178C21.3171 279.093 79.368 279.021 151.006 279.021C222.614 279.021 280.677 279.093 280.677 279.178Z" fill="#322847"/>
<path d="M85.6769 74.9614L85.7251 77.3754C85.7251 77.3754 86.7064 96.0435 86.6462 98.8428C86.586 101.636 77.2249 117.655 77.2249 117.655L82.9439 127.022L96.6755 102.334L93.3825 75.8524L93.3043 75.1962" fill="#FFBE9D"/>
<path d="M92.648 72.0775C92.5999 71.8788 90.7698 65.2749 90.7698 65.2749L83.5157 69.4588C83.5036 70.0668 85.6769 74.9611 85.6769 74.9611L86.929 76.2554C86.929 76.2554 93.2019 75.5932 93.3403 75.527C93.4788 75.4668 92.648 72.0775 92.648 72.0775Z" fill="#FFBE9D"/>
<path d="M91.0226 65.7629C91.0346 65.769 91.0647 65.8171 91.0948 65.9074C91.3717 66.6419 92.1724 69.9589 91.8052 70.2057C91.3958 70.4826 90.1978 70.5127 90.0112 70.0973C89.8186 69.682 89.1263 65.8954 89.1263 65.8954C89.1263 65.8954 89.054 65.2874 90.0052 64.8961C90.5891 64.6492 91.0226 65.7629 91.0226 65.7629Z" fill="#FFBE9D"/>
<path d="M88.735 65.0881C88.747 65.0942 88.7771 65.1423 88.8072 65.2326C89.0841 65.9671 89.8848 69.2841 89.5176 69.5309C89.1082 69.8078 87.9102 69.8379 87.7236 69.4225C87.531 69.0072 86.8387 65.2206 86.8387 65.2206C86.8387 65.2206 86.7664 64.6126 87.7176 64.2213C88.3015 63.9684 88.735 65.0881 88.735 65.0881Z" fill="#FFBE9D"/>
<path d="M86.6461 64.9919C86.6581 64.998 86.6882 65.0461 86.7183 65.1364C86.9953 65.8709 87.7959 69.1879 87.4287 69.4347C87.0193 69.7116 85.8214 69.7417 85.6347 69.3263C85.4421 68.911 84.7498 65.1244 84.7498 65.1244C84.7498 65.1244 84.6776 64.5164 85.6287 64.1251C86.2127 63.8782 86.6461 64.9919 86.6461 64.9919Z" fill="#FFBE9D"/>
<path d="M84.5753 64.9319C84.5873 64.9379 84.6174 64.9861 84.6475 65.0764C84.9245 65.8108 85.7251 69.1278 85.3579 69.3746C84.9485 69.6516 83.7506 69.6817 83.5639 69.2663C83.3713 68.8509 82.679 65.0643 82.679 65.0643C82.679 65.0643 82.6068 64.4563 83.5579 64.065C84.1419 63.8182 84.5753 64.9319 84.5753 64.9319Z" fill="#FFBE9D"/>
<path d="M89.7466 69.1333C89.8008 69.1152 89.6864 68.3748 89.4877 67.4838C89.2891 66.5929 89.0844 65.8885 89.0242 65.9066C88.97 65.9246 89.0844 66.6651 89.283 67.5561C89.4877 68.447 89.6924 69.1514 89.7466 69.1333Z" fill="#EB996E"/>
<path d="M87.8021 69.6454C87.8623 69.6334 87.6817 68.5859 87.3988 67.3097C87.1159 66.0334 86.845 65.01 86.7848 65.0221C86.7246 65.0341 86.9052 66.0816 87.1881 67.3578C87.471 68.6341 87.748 69.6575 87.8021 69.6454Z" fill="#EB996E"/>
<g opacity="0.78">
<path d="M85.7853 69.9946C85.8455 69.9825 85.6649 68.935 85.382 67.6588C85.099 66.3826 84.8281 65.3592 84.7679 65.3712C84.7077 65.3832 84.8883 66.4307 85.1713 67.707C85.4482 68.9832 85.7251 70.0066 85.7853 69.9946Z" fill="#EB996E"/>
</g>
<path d="M87.3505 74.2991L85.1593 72.5292C84.2021 71.7526 83.576 70.6389 83.4195 69.4168L83.2991 68.4837L89.885 67.1533C89.885 67.1533 89.9151 69.6155 88.0188 69.6456L90.3485 70.8255L87.3505 74.2991Z" fill="#FFBE9D"/>
<path d="M90.0656 71.3193C90.0355 71.3373 89.891 71.0484 89.4937 70.6811C89.1084 70.3199 88.4041 69.8805 87.477 69.8684L86.7726 69.8624L87.4349 69.6156C87.9104 69.441 88.4221 69.2484 88.97 69.0497L88.9399 69.0618C89.4937 68.7186 89.9873 68.0865 89.897 67.3581C89.891 67.3039 89.879 67.2377 89.8669 67.2016L90.0535 67.3039C88.2054 67.7614 86.5319 68.1467 85.3098 68.3574C84.6958 68.4658 84.2021 68.532 83.859 68.5741C83.5158 68.6103 83.3232 68.6223 83.3172 68.5982C83.3112 68.5561 84.0576 68.4116 85.2676 68.1407C86.4777 67.8758 88.1332 67.4604 89.9813 67.0029L90.1258 66.9668L90.1679 67.1053C90.192 67.1835 90.2041 67.2437 90.2101 67.322C90.2643 67.7554 90.1499 68.1889 89.9271 68.526C89.7104 68.8751 89.4094 69.122 89.1024 69.3206L89.0904 69.3327L89.0723 69.3387C88.5245 69.5253 88.0067 69.7059 87.5251 69.8745L87.483 69.6216C88.5004 69.6638 89.2228 70.1815 89.596 70.5908C89.9873 70.9942 90.0836 71.3132 90.0656 71.3193Z" fill="#EB996E"/>
<path d="M89.662 68.2552C89.7162 68.2251 89.8246 68.5502 90.1617 68.8572C90.3302 68.9957 90.6132 69.092 90.8239 68.9535C91.0466 68.8091 91.149 68.49 91.1189 68.1348C91.0406 67.3883 90.9985 66.69 90.9322 66.2084C90.866 65.7208 90.7878 65.4198 90.8299 65.4017C90.866 65.3897 91.0165 65.6666 91.149 66.1603C91.2814 66.6599 91.3536 67.3402 91.4319 68.1168C91.468 68.5141 91.3476 68.9897 90.9744 69.2004C90.5831 69.4171 90.1978 69.2064 90.0172 69.0198C89.8246 68.8151 89.7463 68.6104 89.7042 68.478C89.656 68.3455 89.644 68.2673 89.662 68.2552Z" fill="#EB996E"/>
<path d="M67.1594 90.0954C68.7607 89.9991 70.2476 90.9744 71.3553 92.1422C72.463 93.3101 73.3178 94.6947 74.4616 95.8205C75.3165 96.6572 76.3519 97.3796 76.8696 98.4572C77.6944 100.179 77.0021 102.4 78.0435 103.996C78.6275 104.899 79.6629 105.422 80.2709 106.313C81.0294 107.427 80.9692 108.884 80.8007 110.22C80.6803 111.147 80.4937 112.123 79.8616 112.809C79.3619 113.345 78.6576 113.622 77.9653 113.856C72.7519 115.632 66.9848 115.759 61.6992 114.206" fill="#322847"/>
<path d="M56.1247 100.829C55.5467 96.2177 58.8818 92.0097 63.5594 91.5642C67.972 91.1428 71.891 94.4298 72.5532 98.8123C73.1312 102.653 73.6308 106.53 73.6128 107.939C73.5586 112.183 71.0723 113.838 70.067 114.332C69.8382 114.446 69.2061 114.573 68.9473 114.609C68.9292 114.609 68.9232 114.627 68.9232 114.639L69.8683 119.515C70.2957 122.712 68.5138 125.559 65.3232 126.023C62.1266 126.486 59.6223 124.036 59.1347 120.839L56.1247 100.829Z" fill="#FFBE9D"/>
<path d="M71.8189 101.292C71.7467 101.388 71.1868 101.093 70.4705 101.196C69.7541 101.292 69.2785 101.738 69.1882 101.659C69.1461 101.623 69.2063 101.455 69.4109 101.256C69.6156 101.057 69.9768 100.841 70.4223 100.774C70.8678 100.714 71.2711 100.823 71.5119 100.961C71.7587 101.099 71.8551 101.244 71.8189 101.292Z" fill="#322847"/>
<path d="M65.4256 102.677C65.3534 102.774 64.7935 102.479 64.0772 102.581C63.3608 102.677 62.8852 103.123 62.7949 103.045C62.7528 103.008 62.813 102.84 63.0176 102.641C63.2223 102.443 63.5835 102.226 64.029 102.16C64.4745 102.099 64.8778 102.208 65.1186 102.346C65.3594 102.485 65.4618 102.629 65.4256 102.677Z" fill="#322847"/>
<path d="M67.9117 106.072C67.8997 106.03 68.3392 105.892 69.0495 105.693C69.2301 105.645 69.3987 105.585 69.4107 105.458C69.4348 105.32 69.3264 105.133 69.206 104.935C68.9713 104.513 68.7184 104.074 68.4596 103.616C67.4181 101.738 66.6295 100.179 66.7077 100.137C66.786 100.094 67.689 101.587 68.7365 103.466C68.9893 103.929 69.2301 104.375 69.4589 104.796C69.5612 104.995 69.7117 105.211 69.6575 105.5C69.6274 105.645 69.507 105.765 69.3927 105.813C69.2783 105.868 69.1759 105.886 69.0856 105.904C68.3693 106.042 67.9178 106.114 67.9117 106.072Z" fill="#322847"/>
<path d="M68.9174 114.615C68.9174 114.615 66.1722 115.247 62.3977 113.664C62.3977 113.664 64.0291 117.174 69.1702 115.928L68.9174 114.615Z" fill="#EB996E"/>
<path d="M67.8578 107.849C67.5508 107.542 67.0692 107.421 66.6237 107.536C66.3167 107.614 66.0217 107.813 65.8712 108.096C65.7207 108.378 65.7328 108.746 65.9375 108.962C66.1722 109.209 66.5876 109.209 66.9127 109.065C67.2438 108.914 67.5027 108.649 67.7495 108.384C67.8157 108.312 67.8879 108.234 67.9241 108.144C67.9602 108.053 67.9542 107.939 67.8819 107.879" fill="#EB996E"/>
<path d="M65.871 106.879C65.9854 106.855 66.0998 107.637 66.8523 108.089C67.5988 108.547 68.4175 108.336 68.4416 108.444C68.4596 108.492 68.279 108.625 67.9299 108.685C67.5867 108.745 67.069 108.709 66.6115 108.432C66.154 108.149 65.9132 107.722 65.8409 107.409C65.7567 107.09 65.8169 106.885 65.871 106.879Z" fill="#322847"/>
<path d="M64.9319 100.335C64.8898 100.54 64.1553 100.552 63.3306 100.775C62.4998 100.985 61.8557 101.329 61.7172 101.172C61.657 101.094 61.7473 100.895 61.9942 100.666C62.241 100.438 62.6503 100.197 63.144 100.064C63.6436 99.9379 64.1192 99.9499 64.4443 100.028C64.7694 100.106 64.9439 100.239 64.9319 100.335Z" fill="#322847"/>
<path d="M71.0968 99.0771C70.9944 99.2577 70.4767 99.1614 69.8747 99.2397C69.2727 99.2999 68.7911 99.5106 68.6526 99.3541C68.5924 99.2758 68.6466 99.1012 68.8453 98.9146C69.0379 98.728 69.3871 98.5474 69.7964 98.5052C70.2058 98.4571 70.5851 98.5534 70.8138 98.6919C71.0426 98.8303 71.1389 98.9868 71.0968 99.0771Z" fill="#322847"/>
<path d="M73.3839 97.8552C72.505 99.1977 69.7177 98.3669 68.0321 97.4458C66.2562 98.6197 63.794 98.1141 62.5659 96.3141C61.6027 97.5422 59.6462 97.1388 58.9299 95.7542C58.2135 94.3696 58.6168 92.4673 59.5981 91.2573C60.5793 90.0473 62.0121 89.4332 63.4268 89.1744C66.786 88.5543 70.4401 89.8546 72.4508 92.8947C73.3778 94.2914 73.9377 96.1756 73.3839 97.8552Z" fill="#322847"/>
<path d="M59.8512 91.1605C56.6907 90.5585 53.6446 93.707 53.3255 95.9585C52.7777 99.8715 53.3074 100.359 52.5911 102.231C52.1275 103.447 50.5202 104.7 49.8881 105.952C49.2078 107.3 49.2078 109.582 49.6834 111.021C50.0807 112.231 51.7121 115.614 51.7121 115.614C51.7121 115.614 56.4138 115.457 58.8157 114.843C59.4177 114.693 60.0559 114.464 60.5134 114.049C60.9709 113.633 60.0258 112.2 60.1161 111.592C60.3629 109.859 61.6632 108.859 61.29 107.144C60.7963 104.874 59.0084 104.754 59.0505 102.43C59.0686 101.196 60.9107 99.426 61.0793 98.2039C61.2358 96.9939 61.9461 92.7378 59.8512 91.1605Z" fill="#322847"/>
<path d="M54.5055 115.759C54.5235 115.741 54.2767 115.494 53.8794 115.012C53.4881 114.531 52.9463 113.802 52.4827 112.791C52.0312 111.792 51.658 110.479 51.7965 109.023C51.9289 107.59 52.567 105.989 53.8734 104.929C54.5235 104.399 55.27 104.002 55.9021 103.472C56.5523 102.96 57.0038 102.232 57.2205 101.51C57.4492 100.787 57.5215 100.077 57.6118 99.4267C57.6961 98.7765 57.7924 98.1745 57.973 97.6508C58.3041 96.5913 59.0205 95.9532 59.5803 95.7184C60.1462 95.4716 60.5134 95.5619 60.5134 95.5257C60.5134 95.5197 60.4291 95.4956 60.2606 95.4896C60.092 95.4836 59.8392 95.5077 59.5382 95.6221C58.9422 95.8328 58.1536 96.495 57.7864 97.5906C57.5937 98.1264 57.4793 98.7464 57.383 99.3966C57.2867 100.047 57.2024 100.745 56.9797 101.437C56.769 102.13 56.3536 102.78 55.7335 103.267C55.1255 103.773 54.3851 104.164 53.7048 104.718C52.3262 105.838 51.6701 107.512 51.5497 108.999C51.4172 110.51 51.8205 111.858 52.3082 112.875C52.8018 113.899 53.3797 114.621 53.8011 115.085C54.0118 115.319 54.1864 115.488 54.3128 115.602C54.4332 115.717 54.4994 115.771 54.5055 115.759Z" fill="#543B8B"/>
<path d="M77.4778 113.718C77.4839 113.724 77.526 113.664 77.5982 113.55C77.6705 113.435 77.7608 113.255 77.8631 113.02C78.0618 112.55 78.2725 111.816 78.2725 110.889C78.2785 109.968 78.0558 108.842 77.3875 107.795C77.0625 107.265 76.617 106.807 76.2016 106.308C75.7862 105.814 75.4009 105.26 75.2625 104.61C74.9795 103.292 75.413 101.961 75.3227 100.733C75.2805 99.5111 74.9374 98.4215 74.4558 97.6329C73.9802 96.8382 73.4023 96.3265 72.9869 96.0376C72.7762 95.8931 72.6076 95.7907 72.4812 95.7305C72.3608 95.6703 72.2946 95.6402 72.2946 95.6463C72.2826 95.6703 72.5294 95.8088 72.9207 96.1218C73.312 96.4349 73.8478 96.9526 74.2872 97.7292C74.7327 98.5058 75.0397 99.5532 75.0698 100.739C75.0939 101.329 75.0217 101.949 74.9554 102.605C74.8892 103.256 74.829 103.96 74.9916 104.67C75.1481 105.387 75.5695 105.983 75.9969 106.482C76.4243 106.988 76.8638 107.433 77.1768 107.933C77.821 108.92 78.0557 110.004 78.0798 110.889C78.1039 111.786 77.9293 112.508 77.7668 112.978C77.5922 113.459 77.4538 113.706 77.4778 113.718Z" fill="#543B8B"/>
<path d="M64.1071 89.6496C64.1131 89.7098 64.9017 89.5593 66.1418 89.764C67.3639 89.9687 69.0796 90.6068 70.3618 92.0335C71.614 93.4844 72.1799 95.2 72.3906 96.4281C72.6013 97.6743 72.4387 98.4569 72.4929 98.4629C72.511 98.4629 72.5591 98.2763 72.6073 97.9151C72.6494 97.5599 72.6615 97.0362 72.5832 96.398C72.4207 95.1338 71.8729 93.3579 70.5725 91.8469C69.2301 90.354 67.4361 89.7279 66.1719 89.5653C65.5338 89.4811 65.0101 89.4991 64.6549 89.5413C64.2937 89.5834 64.1011 89.6376 64.1071 89.6496Z" fill="#543B8B"/>
<path d="M68.6464 95.8929C68.6644 95.8929 68.7005 95.7244 68.7126 95.4173C68.7306 95.1043 68.7005 94.6528 68.5741 94.105C68.3333 93.0274 67.5567 91.5405 66.0517 90.6495C64.5407 89.7646 62.8611 89.8067 61.8016 90.1197C61.2658 90.2702 60.8505 90.4689 60.5916 90.6375C60.3267 90.8 60.1943 90.9144 60.2063 90.9264C60.2364 90.9746 60.7963 90.5592 61.8558 90.3124C62.8912 90.0595 64.4865 90.0595 65.9133 90.8903C67.334 91.7331 68.1106 93.1297 68.3875 94.1592C68.6825 95.2006 68.5862 95.8929 68.6464 95.8929Z" fill="#543B8B"/>
<path d="M55.0172 143.433C55.0172 143.433 57.1002 148.182 56.9798 150.428C56.8594 152.673 54.7102 159.97 54.7102 159.97L80.1688 162.353L80.2892 156.466L79.5247 132.247L93.7198 110.654L82.9741 104.417L72.5354 118.57L69.8927 117.547L58.4727 118.997V121.014L58.1476 121.056C58.1476 121.056 54.5176 121.718 51.032 123.844C46.9203 126.354 44.8133 131.164 45.5779 135.926C46.0414 138.815 46.9444 142.325 48.6782 144.348C51.9892 148.225 55.0172 143.433 55.0172 143.433Z" fill="#FF3800"/>
<path d="M51.4051 132.127C51.4051 132.127 50.1047 124.734 50.478 124.204C50.9295 123.572 56.2752 121.273 56.3595 121.507L57.5334 129.634L51.4051 132.127Z" fill="#FAFAFA"/>
<path d="M73.1009 132.537L72.4929 146.714H77.8447V132.537H73.1009Z" fill="#FAFAFA"/>
<path d="M64.2457 139.628C64.2397 139.622 64.3421 139.616 64.5467 139.604C64.7875 139.598 65.0946 139.592 65.4678 139.58C66.3287 139.568 67.5146 139.549 68.9895 139.525H69.0918V139.628C69.1219 143.035 69.146 148.116 69.146 153.805V153.961H68.9895C68.8932 153.961 68.7848 153.961 68.6825 153.961C66.9246 153.961 65.227 153.955 63.6377 153.955H63.4812L63.4872 153.799C63.6919 149.711 63.8665 146.165 63.9929 143.595C64.0651 142.373 64.1193 141.38 64.1615 140.657C64.1855 140.344 64.1976 140.085 64.2156 139.881C64.2277 139.706 64.2397 139.622 64.2457 139.628C64.2518 139.634 64.2518 139.736 64.2518 139.923C64.2457 140.139 64.2457 140.404 64.2397 140.729C64.2217 141.464 64.1916 142.463 64.1554 143.703C64.0651 146.25 63.9387 149.765 63.7882 153.817L63.6377 153.66C65.221 153.66 66.9246 153.654 68.6825 153.654C68.7908 153.654 68.8932 153.654 68.9895 153.654L68.833 153.811C68.833 148.122 68.8571 143.035 68.8872 139.634L68.9895 139.736C67.5447 139.712 66.3768 139.694 65.528 139.682C65.1427 139.67 64.8297 139.664 64.5829 139.658C64.3661 139.64 64.2518 139.634 64.2457 139.628Z" fill="#FAFAFA"/>
<path d="M84.8882 123.76L79.2415 120.196L84.2019 112.954L89.9871 116.313L84.8882 123.76Z" fill="#FAFAFA"/>
<g opacity="0.4">
<path d="M79.2418 124.199H62.6687V129.575H79.2418V124.199Z" fill="white"/>
</g>
<path d="M79.0007 138.821C78.9767 138.815 78.9887 138.64 79.0308 138.321C79.073 138.008 79.1211 137.551 79.1753 136.985C79.2777 135.853 79.3318 134.288 79.1753 132.566C79.0128 130.844 78.6757 129.315 78.3687 128.22C78.0616 127.13 77.8148 126.468 77.863 126.45C77.881 126.444 77.9653 126.6 78.0977 126.889C78.2302 127.178 78.3987 127.612 78.5793 128.154C78.9466 129.237 79.3258 130.79 79.4884 132.536C79.6449 134.282 79.5546 135.877 79.3921 137.009C79.3138 137.575 79.2295 138.032 79.1512 138.345C79.073 138.658 79.0188 138.827 79.0007 138.821Z" fill="#322847"/>
<path d="M87.0374 106.771C87.0675 106.801 86.7003 107.271 86.0682 108.017C85.4421 108.758 84.5572 109.769 83.5639 110.871C83.1907 111.28 82.8355 111.677 82.4984 112.045L82.4081 112.141L82.2997 112.069C81.3907 111.449 80.6141 110.913 80.0663 110.515C79.5245 110.124 79.2114 109.877 79.2295 109.847C79.2476 109.817 79.5967 110.01 80.1686 110.359C80.7405 110.708 81.5412 111.22 82.4622 111.816L82.2696 111.84C82.6007 111.467 82.9559 111.069 83.3231 110.66C84.3104 109.558 85.2254 108.571 85.8936 107.867C86.5739 107.168 87.0013 106.747 87.0374 106.771Z" fill="#FAFAFA"/>
<path d="M92.889 111.894C92.8709 111.93 92.2328 111.635 91.2214 111.117C90.2101 110.605 88.8195 109.877 87.2964 109.052C85.7733 108.228 84.4008 107.469 83.4135 106.909C82.4262 106.343 81.8302 105.976 81.8483 105.94C81.8664 105.904 82.5045 106.199 83.5158 106.717C84.5272 107.228 85.9178 107.957 87.4409 108.781C88.9639 109.606 90.3365 110.365 91.3238 110.925C92.3111 111.49 92.9131 111.858 92.889 111.894Z" fill="#322847"/>
<path d="M35.6268 259.534L32.8997 271.869L27.9272 281.002C27.566 281.658 27.8429 282.482 28.5232 282.795C28.9024 282.97 29.3419 282.952 29.7091 282.741C32.0208 281.405 40.503 276.444 40.6535 275.535C40.8281 274.476 44.3979 262.713 44.3979 262.713L35.6268 259.534Z" fill="#FF3800"/>
<g opacity="0.6">
<path d="M28.5232 282.795L40.8582 274.705L40.7318 275.222C40.6234 275.674 40.3585 276.071 39.9793 276.342C38.9739 277.064 36.1626 279.009 29.7453 282.753C29.372 282.97 28.9145 282.988 28.5232 282.795Z" fill="white"/>
</g>
<g opacity="0.6">
<path d="M39.311 270.13C38.9498 270.268 38.7391 270.708 38.8595 271.075C38.9799 271.442 39.4253 271.659 39.7865 271.533C40.1477 271.4 40.4247 270.882 40.2621 270.533C40.0996 270.184 39.5638 269.949 39.2447 270.166" fill="white"/>
</g>
<path d="M32.6406 278.125C32.5624 278.143 32.442 277.432 31.7978 276.909C31.1657 276.367 30.4494 276.373 30.4494 276.294C30.4433 276.264 30.6239 276.204 30.9189 276.234C31.2139 276.264 31.6172 276.403 31.9724 276.698C32.3216 276.993 32.5323 277.366 32.6105 277.655C32.7008 277.932 32.6768 278.119 32.6406 278.125Z" fill="#322847"/>
<path d="M31.3643 279.551C31.292 279.587 30.9971 279.094 30.4071 278.756C29.8232 278.407 29.2452 278.389 29.2452 278.311C29.2272 278.239 29.8773 278.124 30.5456 278.522C31.2198 278.907 31.4365 279.533 31.3643 279.551Z" fill="#322847"/>
<path d="M34.7899 276.415C34.7176 276.457 34.2661 275.692 33.3932 275.09C32.5324 274.47 31.6595 274.301 31.6775 274.217C31.6715 274.145 32.6287 274.199 33.5558 274.861C34.4828 275.518 34.8561 276.396 34.7899 276.415Z" fill="#322847"/>
<path d="M35.9278 272.736C35.8796 272.802 35.2716 272.351 34.3927 272.104C33.5198 271.845 32.7673 271.893 32.7613 271.815C32.7432 271.749 33.5379 271.562 34.471 271.839C35.4101 272.104 35.982 272.688 35.9278 272.736Z" fill="#322847"/>
<path d="M36.8246 269.136C36.7704 269.197 36.1865 268.625 35.2474 268.438C34.3083 268.233 33.5437 268.528 33.5196 268.45C33.5076 268.42 33.6762 268.3 34.0012 268.203C34.3203 268.107 34.7959 268.065 35.3016 268.167C35.8072 268.276 36.2226 268.504 36.4815 268.721C36.7403 268.932 36.8487 269.112 36.8246 269.136Z" fill="#322847"/>
<path d="M35.4341 267.752C35.416 267.746 35.4341 267.577 35.5304 267.282C35.6327 266.993 35.8254 266.578 36.1986 266.156C36.3852 265.964 36.5959 265.699 36.9812 265.627C37.1739 265.585 37.4147 265.681 37.523 265.88C37.6314 266.072 37.6254 266.283 37.5832 266.482C37.3785 267.258 36.5237 267.848 35.6207 267.746C34.7177 267.625 34.0435 266.927 33.8629 266.169C33.8267 265.976 33.8267 265.747 33.9772 265.567C34.1217 265.38 34.3926 265.356 34.5612 265.434C34.9103 265.579 35.0909 265.843 35.2655 266.054C35.6026 266.5 35.7772 266.921 35.8675 267.21C35.9578 267.505 35.9699 267.68 35.9518 267.68C35.9036 267.704 35.7893 266.999 35.109 266.175C34.9344 265.982 34.7358 265.741 34.4829 265.651C34.3565 265.609 34.2361 265.633 34.1639 265.723C34.0916 265.813 34.0796 265.97 34.1157 266.126C34.2722 266.746 34.8923 267.385 35.6568 267.475C36.4153 267.571 37.1678 267.047 37.3364 266.427C37.3725 266.277 37.3725 266.114 37.3123 266.006C37.2521 265.898 37.1377 265.843 37.0173 265.861C36.7525 265.898 36.5297 266.12 36.3491 266.301C35.6026 267.071 35.4822 267.782 35.4341 267.752Z" fill="#322847"/>
<g opacity="0.3">
<path d="M35.3077 260.871L34.9404 262.628L43.6514 265.181L44.3978 262.713L35.6267 259.534L35.3077 260.871Z" fill="black"/>
</g>
<path d="M75.5391 264.098L74.8046 273.952C74.8046 273.952 84.5751 278.01 84.6172 279.846L65.4556 279.105L65.9733 263.7L75.5391 264.098Z" fill="#FF3800"/>
<g opacity="0.6">
<path d="M68.9053 272.893C68.5321 272.977 68.2552 273.386 68.3274 273.766C68.3997 274.145 68.809 274.422 69.1883 274.343C69.5615 274.265 69.9047 273.784 69.7903 273.416C69.6759 273.049 69.1762 272.748 68.8271 272.917" fill="white"/>
</g>
<g opacity="0.6">
<path d="M65.45 279.105L65.5643 277.552L83.8952 278.847C83.8952 278.847 84.732 279.25 84.6116 279.846L65.45 279.105Z" fill="white"/>
</g>
<path d="M75.1117 273.868C75.1057 273.964 74.6362 273.988 74.1606 274.271C73.679 274.542 73.4261 274.939 73.3419 274.897C73.2576 274.873 73.4201 274.319 73.998 273.988C74.576 273.651 75.1358 273.784 75.1117 273.868Z" fill="#322847"/>
<path d="M77.0924 274.777C77.1105 274.867 76.7011 275.011 76.364 275.397C76.0209 275.77 75.9245 276.197 75.8282 276.185C75.7379 276.197 75.6958 275.643 76.1172 275.18C76.5386 274.704 77.0924 274.686 77.0924 274.777Z" fill="#322847"/>
<path d="M78.1401 277.227C78.0558 277.245 77.9415 276.769 78.2003 276.27C78.4592 275.764 78.9047 275.577 78.9408 275.662C78.9889 275.74 78.694 276.005 78.4893 276.42C78.2786 276.829 78.2364 277.221 78.1401 277.227Z" fill="#322847"/>
<path d="M75.0335 271.604C74.9914 271.689 74.5639 271.544 74.0342 271.556C73.5044 271.562 73.083 271.725 73.0409 271.641C72.9867 271.568 73.4021 271.237 74.0282 271.231C74.6542 271.213 75.0817 271.532 75.0335 271.604Z" fill="#322847"/>
<g opacity="0.3">
<path d="M75.3889 266.048L75.2624 267.806L65.8472 267.354L65.9074 265.326L75.3889 266.048Z" fill="black"/>
</g>
<path d="M75.1478 269.612C75.1478 269.648 74.7746 269.696 74.1907 269.569C73.8957 269.509 73.5586 269.395 73.1974 269.22C73.0168 269.13 72.8362 269.028 72.6556 268.907C72.5713 268.847 72.4689 268.787 72.3726 268.672C72.2703 268.57 72.2221 268.323 72.3485 268.173C72.4509 268.028 72.6255 267.974 72.7639 267.974C72.9024 267.974 73.0168 268.01 73.1191 268.04C73.3298 268.101 73.5285 268.179 73.7091 268.269C74.0703 268.45 74.3592 268.672 74.5699 268.883C74.9973 269.311 75.1358 269.666 75.1057 269.684C75.0636 269.714 74.8589 269.413 74.4194 269.052C74.2027 268.871 73.9198 268.69 73.5826 268.534C73.4141 268.462 73.2335 268.396 73.0408 268.341C72.8422 268.281 72.6676 268.269 72.6134 268.359C72.5954 268.396 72.5893 268.408 72.6315 268.468C72.6736 268.522 72.7519 268.582 72.8362 268.642C72.9987 268.757 73.1673 268.865 73.3298 268.949C73.6549 269.13 73.9739 269.256 74.2448 269.341C74.7866 269.521 75.1478 269.557 75.1478 269.612Z" fill="#322847"/>
<path d="M75.0156 269.738C74.9794 269.75 74.8109 269.407 74.7988 268.799C74.7928 268.498 74.841 268.137 74.9734 267.751C75.0396 267.559 75.1299 267.366 75.2383 267.179C75.3587 266.993 75.5032 266.746 75.8704 266.716C76.063 266.716 76.2135 266.872 76.2617 266.999C76.3219 267.131 76.3279 267.24 76.346 267.354C76.3701 267.577 76.358 267.799 76.3219 267.998C76.2436 268.401 76.063 268.739 75.8764 268.973C75.4851 269.455 75.0878 269.551 75.0818 269.521C75.0517 269.473 75.3828 269.304 75.6898 268.841C75.8403 268.612 75.9788 268.305 76.0269 267.95C76.051 267.775 76.057 267.583 76.0329 267.396C76.0089 267.191 75.9426 267.023 75.8644 267.041C75.7681 267.035 75.5995 267.185 75.5152 267.342C75.4129 267.51 75.3226 267.685 75.2564 267.854C75.1239 268.197 75.0577 268.522 75.0336 268.805C74.9855 269.371 75.0697 269.726 75.0156 269.738Z" fill="#322847"/>
<path d="M51.2605 137.852L56.221 138.129C56.5341 139.736 57.6237 142.192 57.6237 142.192C61.6149 135.263 64.7092 125.981 65.4798 122.254C65.3654 121.881 65.233 121.472 65.0704 121.008C64.8778 120.478 65.0403 119.467 65.1306 118.913C65.2631 118.082 65.4978 116.963 65.5641 116.445C65.7748 114.868 66.0276 114.621 66.5814 114.801C67.3279 115.042 66.2744 119.226 66.8885 119.316C67.2196 119.365 67.6229 117.932 67.7373 116.758C67.8517 115.584 68.3874 111.966 68.7727 111.725C69.3446 111.37 69.8383 111.93 69.6938 113.104C69.5493 114.29 69.3627 117.823 69.9888 117.872C70.6028 117.92 71.1145 111.918 71.1145 111.918C71.1145 111.918 71.0182 110.612 71.7346 110.642C73.0349 110.696 72.0175 117.023 71.9091 117.619C71.8309 118.034 72.5051 118.112 72.5653 117.661C72.6255 117.197 72.9386 111.659 74.263 111.707C75.2803 111.743 73.4743 116.92 74.0462 118.118C74.6181 119.316 75.0094 114.043 75.9787 114.115C76.3399 114.145 76.6047 114.211 75.9425 117.197C75.5874 118.805 74.5399 121.755 73.6248 124.193C72.0897 132.47 65.3534 158.958 54.7943 154.106C48.8826 151.391 46.1255 137.96 46.1255 137.96L51.2605 137.852Z" fill="#FFBE9D"/>
<path d="M73.6252 124.199C73.6192 124.199 73.6372 124.132 73.6734 124.018C73.7215 123.886 73.7757 123.711 73.8479 123.494C74.0105 123.019 74.2453 122.35 74.5402 121.496C74.8352 120.629 75.1964 119.563 75.5576 118.311C75.7442 117.685 75.8887 117.011 76.0272 116.282C76.0934 115.921 76.1656 115.548 76.2078 115.163C76.2258 114.97 76.2439 114.777 76.2319 114.591C76.2198 114.392 76.1897 114.235 76.0332 114.229C75.8707 114.187 75.7623 114.32 75.6539 114.488C75.5516 114.657 75.4733 114.85 75.4011 115.048C75.2626 115.446 75.1483 115.867 75.0399 116.3C74.9315 116.734 74.8292 117.179 74.6968 117.631C74.6185 117.86 74.5824 118.082 74.3958 118.329C74.3596 118.359 74.3295 118.401 74.2573 118.413C74.179 118.431 74.1249 118.401 74.0647 118.371C73.9924 118.305 73.9563 118.239 73.9262 118.179C73.872 118.052 73.8359 117.92 73.8178 117.793C73.7275 116.782 73.9563 115.801 74.1188 114.783C74.2031 114.278 74.2994 113.766 74.3657 113.242C74.3958 112.983 74.4259 112.718 74.4259 112.466C74.4379 112.225 74.3958 111.906 74.2874 111.858C74.161 111.809 73.9262 111.954 73.7998 112.171C73.6613 112.381 73.559 112.628 73.4687 112.887C73.2941 113.399 73.1797 113.947 73.0774 114.5C72.9811 115.054 72.9088 115.62 72.8426 116.198C72.8125 116.487 72.7884 116.776 72.7583 117.065L72.7222 117.504C72.7102 117.625 72.7102 117.872 72.5235 118.016C72.349 118.148 72.1142 118.161 71.9276 118.04C71.8312 117.98 71.759 117.866 71.747 117.751C71.7349 117.691 71.747 117.643 71.747 117.589L71.765 117.48C71.8072 117.185 71.8553 116.89 71.8975 116.595C71.9817 116.005 72.054 115.403 72.1082 114.801C72.1623 114.199 72.2045 113.585 72.2165 112.977C72.2165 112.369 72.2105 111.737 72.0359 111.183C71.9817 111.015 71.8854 110.864 71.7831 110.816C71.6747 110.78 71.5242 110.816 71.4399 110.924C71.2654 111.171 71.2353 111.575 71.2473 111.906V111.924V111.93C71.1389 113.116 71.0125 114.284 70.8379 115.427C70.7476 115.999 70.6573 116.565 70.5129 117.131C70.4767 117.27 70.4346 117.414 70.3864 117.553C70.3202 117.691 70.3022 117.835 70.1035 117.986C69.9289 118.07 69.8025 117.974 69.7303 117.902C69.658 117.823 69.6279 117.751 69.5918 117.673C69.5316 117.522 69.5015 117.378 69.4774 117.239C69.3149 116.102 69.3811 115.006 69.4473 113.934C69.4714 113.393 69.5978 112.863 69.5316 112.387C69.4955 112.153 69.4052 111.918 69.2487 111.809C69.1704 111.761 69.0861 111.749 68.9898 111.767C68.9416 111.779 68.8935 111.797 68.8513 111.827C68.8032 111.864 68.8152 111.852 68.7791 111.918C68.5804 112.327 68.4841 112.851 68.3818 113.326C68.2794 113.808 68.1952 114.29 68.1229 114.765C68.0447 115.241 67.9784 115.71 67.9182 116.168C67.858 116.625 67.8219 117.089 67.7316 117.54C67.6473 117.992 67.539 118.425 67.3764 118.847C67.3343 118.949 67.2861 119.058 67.232 119.16C67.1597 119.256 67.1236 119.377 66.9249 119.437C66.8166 119.467 66.7203 119.395 66.6721 119.328C66.63 119.262 66.6119 119.202 66.5938 119.142C66.5698 119.027 66.5577 118.913 66.5517 118.805C66.5397 117.944 66.6661 117.155 66.7082 116.391C66.7323 116.011 66.7504 115.638 66.7082 115.295C66.6841 115.132 66.636 114.94 66.5397 114.904C66.4072 114.85 66.2326 114.819 66.1303 114.898C65.9076 115.06 65.8293 115.427 65.7571 115.722C65.6848 116.035 65.6547 116.342 65.5945 116.643C65.3838 117.835 65.1611 118.865 65.0527 119.702C65.0046 120.123 64.9805 120.496 65.0347 120.815C65.1069 121.122 65.2092 121.393 65.2634 121.604C65.3236 121.803 65.3718 121.965 65.4079 122.092C65.438 122.2 65.45 122.26 65.45 122.26C65.444 122.26 65.4199 122.206 65.3838 122.098C65.3417 121.977 65.2815 121.815 65.2092 121.622C65.137 121.405 65.0347 121.158 64.9444 120.833C64.8781 120.502 64.8902 120.117 64.9323 119.69C65.0226 118.835 65.2273 117.817 65.4199 116.619C65.4741 116.324 65.5042 116.005 65.5704 115.686C65.6066 115.524 65.6427 115.361 65.7029 115.199C65.7691 115.042 65.8353 114.856 66.0219 114.735C66.2146 114.615 66.4373 114.657 66.6179 114.729C66.8527 114.862 66.8647 115.09 66.9069 115.271C66.9611 115.65 66.943 116.023 66.9249 116.409C66.8888 117.173 66.7684 117.98 66.7865 118.793C66.7925 118.895 66.8045 118.991 66.8226 119.082C66.8467 119.178 66.8948 119.22 66.8828 119.196C66.9009 119.202 66.9791 119.112 67.0213 119.033C67.0694 118.949 67.1116 118.853 67.1477 118.757C67.2982 118.365 67.4005 117.932 67.4788 117.492C67.5631 117.059 67.5932 116.601 67.6534 116.132C67.7136 115.668 67.7798 115.193 67.852 114.717C67.9243 114.242 68.0085 113.754 68.1109 113.266C68.2253 112.773 68.2915 112.291 68.5323 111.773C68.5443 111.719 68.6527 111.605 68.7069 111.581C68.7731 111.545 68.8453 111.514 68.9176 111.49C69.0741 111.448 69.2607 111.472 69.3992 111.569C69.6761 111.761 69.7664 112.068 69.8085 112.339C69.8507 112.616 69.8386 112.899 69.8025 113.164C69.7724 113.423 69.7483 113.688 69.7303 113.953C69.6701 115.006 69.6099 116.114 69.7664 117.185C69.7905 117.318 69.8206 117.45 69.8627 117.559C69.8868 117.613 69.9109 117.667 69.941 117.691C69.953 117.709 69.959 117.709 69.965 117.709C69.959 117.829 69.965 117.733 69.959 117.757C69.959 117.733 69.953 117.739 69.941 117.715C69.965 117.697 70.0493 117.553 70.0854 117.438C70.1276 117.312 70.1697 117.179 70.2058 117.047C70.3443 116.511 70.4346 115.945 70.5249 115.379C70.6935 114.242 70.8199 113.08 70.9282 111.9V111.924C70.9222 111.539 70.9162 111.129 71.1811 110.726C71.3376 110.527 71.6205 110.419 71.8854 110.521C72.1503 110.642 72.2466 110.876 72.3189 111.075C72.5175 111.719 72.5115 112.351 72.5115 112.977C72.4995 113.603 72.4573 114.217 72.4031 114.831C72.3429 115.439 72.2707 116.048 72.1864 116.643C72.1383 116.944 72.0961 117.239 72.048 117.534C72.0118 117.721 72.0179 117.727 72.0781 117.781C72.1383 117.829 72.2587 117.817 72.3128 117.769C72.3791 117.727 72.3851 117.637 72.3971 117.474L72.4332 117.035C72.4633 116.74 72.4934 116.451 72.5175 116.162C72.5837 115.584 72.656 115.012 72.7583 114.446C72.8607 113.88 72.975 113.326 73.1617 112.785C73.258 112.514 73.3663 112.249 73.5289 112.002C73.6132 111.882 73.7095 111.755 73.854 111.665C73.9984 111.581 74.161 111.502 74.3777 111.587C74.5824 111.701 74.6185 111.894 74.6546 112.032C74.6787 112.177 74.6847 112.321 74.6787 112.46C74.6727 112.737 74.6426 113.007 74.6125 113.272C74.5402 113.802 74.4499 114.314 74.3596 114.825C74.1971 115.831 73.9683 116.83 74.0466 117.751C74.0586 117.866 74.0887 117.968 74.1249 118.058C74.1489 118.106 74.173 118.142 74.1911 118.161C74.1911 118.155 74.1851 118.148 74.179 118.185C74.173 118.227 74.179 118.179 74.173 118.185C74.155 118.155 74.167 118.161 74.179 118.148C74.2874 118.016 74.3596 117.763 74.4259 117.559C74.5583 117.119 74.6606 116.674 74.775 116.24C74.8894 115.807 75.0038 115.379 75.1543 114.97C75.2325 114.765 75.3108 114.561 75.4312 114.368C75.4974 114.272 75.5576 114.175 75.66 114.103C75.7081 114.061 75.7743 114.031 75.8406 114.013C75.9188 114.001 75.985 114.001 76.0332 114.013C76.1536 114.019 76.3101 114.121 76.3523 114.248C76.4004 114.368 76.4125 114.476 76.4185 114.585C76.4305 114.795 76.4064 114.994 76.3824 115.193C76.3342 115.584 76.262 115.963 76.1897 116.324C76.0452 117.053 75.8827 117.733 75.6901 118.359C75.3108 119.611 74.9315 120.671 74.6245 121.538C74.3115 122.399 74.0526 123.067 73.878 123.518C73.7938 123.729 73.7275 123.898 73.6734 124.03C73.6613 124.144 73.6312 124.205 73.6252 124.199Z" fill="#EB996E"/>
<path d="M46.0715 138.43C47.0287 141.813 48.907 147.044 50.9176 152.559C51.2066 153.353 52.3143 153.408 52.6815 152.643L57.6179 142.198C57.6179 142.198 56.4259 133.62 56.5283 133.921C56.6306 134.222 46.3364 135.029 46.3364 135.029L46.0715 138.43Z" fill="#FF3800"/>
<path d="M59.4238 139.26C59.3997 139.285 59.2974 139.164 59.0446 139.092C58.8098 139.02 58.3763 139.026 58.0934 139.345L57.961 139.495L57.8887 139.309C57.6238 138.634 57.2927 137.761 56.9496 136.798C56.155 134.583 55.571 132.759 55.6553 132.735C55.7396 132.705 56.4499 134.481 57.2446 136.696C57.5877 137.653 57.8947 138.544 58.1175 139.23L57.9128 139.188C58.1115 138.984 58.3583 138.899 58.569 138.881C58.7797 138.863 58.9603 138.905 59.0987 138.965C59.3636 139.086 59.4359 139.248 59.4238 139.26Z" fill="#322847"/>
<path d="M52.4226 149.194C52.3865 149.17 52.6634 148.61 53.139 147.713C53.6145 146.816 54.2948 145.594 55.0593 144.251C55.8239 142.909 56.5342 141.699 57.058 140.832C57.5817 139.965 57.9309 139.441 57.967 139.459C58.0031 139.484 57.7262 140.043 57.2506 140.94C56.775 141.837 56.0948 143.059 55.3302 144.402C54.5657 145.744 53.8553 146.954 53.3316 147.821C52.8018 148.688 52.4587 149.218 52.4226 149.194Z" fill="#322847"/>
<path d="M49.1355 147.622C49.1235 147.598 49.4365 147.382 49.9964 147.02C50.5562 146.659 51.3689 146.154 52.3562 145.552L52.302 145.714C51.7542 144.432 51.1161 142.933 50.4298 141.326C49.575 139.291 48.8104 137.431 48.2506 136.04L48.4131 136.094C47.6305 136.516 46.9984 136.859 46.5529 137.081C46.1075 137.31 45.8606 137.425 45.8486 137.407C45.8366 137.388 46.0653 137.232 46.4927 136.967C46.9141 136.702 47.5342 136.335 48.3048 135.889L48.4191 135.823L48.4733 135.944C49.0753 137.316 49.87 139.164 50.7248 141.199C51.393 142.818 52.0191 144.323 52.5489 145.612L52.591 145.72L52.4947 145.774C51.4954 146.352 50.6646 146.822 50.0807 147.147C49.4847 147.478 49.1476 147.647 49.1355 147.622Z" fill="#FAFAFA"/>
<path d="M75.9184 266.578C77.7485 266.524 79.2294 265.085 79.3438 263.261C80.3732 246.598 85.0086 170.8 84.0816 168.422C83.0341 165.749 80.289 156.454 80.289 156.454L55.7093 155.298C55.7093 155.298 49.587 164.966 48.708 168.669C47.9194 171.986 25.6514 242.149 22.8822 257.072C22.5993 258.608 23.5143 260.101 25.0073 260.552L75.9184 266.578Z" fill="#322847"/>
<path d="M60.5555 155.84C60.5555 155.84 60.5254 155.93 60.4471 156.105C60.3628 156.285 60.2485 156.538 60.0979 156.863C59.7789 157.537 59.3214 158.519 58.7314 159.765C58.4605 160.409 58.1595 161.125 57.8344 161.902C57.5033 162.685 57.1421 163.527 56.8171 164.467C56.4799 165.4 56.0947 166.381 55.7274 167.446C55.3783 168.512 55.0111 169.644 54.6258 170.824C54.2766 172.022 53.9154 173.274 53.5361 174.58C53.181 175.892 52.8439 177.265 52.4706 178.686C52.1395 180.112 51.7964 181.587 51.4472 183.11C51.1282 184.64 50.773 186.205 50.4539 187.824C49.7917 191.051 49.1476 194.452 48.4553 197.974C47.757 201.496 47.0406 205.138 46.1737 208.846C45.7643 210.706 45.2827 212.524 44.8373 214.324C44.3436 216.112 43.868 217.876 43.3443 219.598C42.2968 223.035 41.153 226.31 39.9851 229.392C37.6313 235.557 35.1932 240.981 33.0621 245.49C30.925 249.999 29.107 253.605 27.8428 256.085C27.2107 257.313 26.7171 258.276 26.3739 258.938C26.2054 259.251 26.0789 259.498 25.9826 259.679C25.8923 259.841 25.8381 259.926 25.8381 259.926C25.8381 259.926 25.8743 259.835 25.9525 259.667C26.0428 259.486 26.1632 259.233 26.3137 258.914C26.6448 258.24 27.1204 257.277 27.7344 256.031C28.9625 253.526 30.7565 249.908 32.8635 245.393C34.9645 240.872 37.3785 235.448 39.7203 229.284C40.8821 226.202 42.0139 222.933 43.0553 219.501C43.5791 217.786 44.0486 216.028 44.5423 214.24C44.9878 212.44 45.4694 210.628 45.8727 208.768C46.7336 205.065 47.456 201.423 48.1603 197.908C48.8526 194.386 49.5088 190.991 50.177 187.758C50.496 186.139 50.8573 184.573 51.1823 183.044C51.5375 181.521 51.8867 180.046 52.2238 178.62C52.597 177.199 52.9462 175.826 53.3074 174.514C53.6927 173.208 54.0659 171.955 54.4151 170.757C54.8064 169.571 55.1856 168.446 55.5348 167.38C55.908 166.321 56.2993 165.333 56.6485 164.406C56.9856 163.473 57.3528 162.63 57.696 161.848C58.0331 161.071 58.3401 160.361 58.617 159.717C59.219 158.459 59.7127 157.495 60.0378 156.833C60.2003 156.514 60.3267 156.267 60.417 156.087C60.5073 155.924 60.5555 155.84 60.5555 155.84Z" fill="#543B8B"/>
<path d="M38.8535 262.015C38.8535 262.015 38.8716 261.919 38.9137 261.738C38.9679 261.545 39.0341 261.28 39.1304 260.937C39.3291 260.221 39.6181 259.192 39.9853 257.867C40.7318 255.188 41.7973 251.335 43.1217 246.58C44.4341 241.812 45.9631 236.123 47.6247 229.796C48.4434 226.629 49.2982 223.306 50.1832 219.857C51.044 216.401 51.941 212.832 52.856 209.171C53.741 205.499 54.6018 201.917 55.4326 198.456C56.2393 194.988 57.0219 191.647 57.7623 188.463C59.2192 182.087 60.4954 176.332 61.5369 171.498C62.5663 166.67 63.4031 162.757 63.981 160.042C64.27 158.7 64.4927 157.652 64.6432 156.924C64.7215 156.581 64.7817 156.31 64.8238 156.117C64.8659 155.936 64.896 155.846 64.896 155.846C64.896 155.846 64.89 155.943 64.8539 156.123C64.8178 156.322 64.7696 156.593 64.7034 156.936C64.5589 157.664 64.3603 158.718 64.0954 160.066C63.8245 161.427 63.4874 163.088 63.1021 165.009C62.7048 166.935 62.2472 169.126 61.7476 171.546C60.7302 176.386 59.478 182.148 58.0393 188.529C57.3108 191.719 56.5523 195.066 55.7276 198.528C54.8968 201.989 54.036 205.577 53.157 209.244C52.242 212.904 51.345 216.48 50.4781 219.935C49.6052 223.385 48.7263 226.708 47.9016 229.868C46.228 236.189 44.6749 241.872 43.3324 246.64C42.6582 249.018 42.0441 251.173 41.5083 253.063C40.9605 254.947 40.491 256.573 40.0997 257.903C39.7084 259.216 39.4013 260.245 39.1906 260.955C39.0883 261.293 39.004 261.557 38.9438 261.75C38.8896 261.931 38.8535 262.015 38.8535 262.015Z" fill="#543B8B"/>
<path d="M68.1468 155.888C68.1468 155.888 68.1649 155.985 68.195 156.171C68.219 156.37 68.2552 156.647 68.2973 156.996C68.3395 157.363 68.3936 157.815 68.4538 158.344C68.514 158.874 68.5261 159.494 68.5742 160.192C68.5923 160.542 68.6104 160.909 68.6344 161.294C68.6344 161.679 68.6344 162.089 68.6405 162.51C68.6405 162.932 68.6405 163.377 68.6405 163.835C68.6344 164.292 68.5983 164.774 68.5802 165.267C68.5562 165.761 68.5321 166.273 68.502 166.802C68.4538 167.326 68.4057 167.874 68.3515 168.428C68.2672 169.548 68.0806 170.721 67.9301 171.956C67.5569 174.418 67.0632 177.103 66.4311 179.956C65.799 182.816 65.0525 185.85 64.282 189.046C63.5114 192.243 62.7168 195.602 62.0485 199.112C61.3984 202.627 60.8265 206.282 60.3509 210.044C59.8693 213.807 59.466 217.491 59.0747 221.049C58.6894 224.606 58.2921 228.038 57.8827 231.301C57.66 232.932 57.4432 234.521 57.2325 236.063C56.9797 237.604 56.757 239.097 56.5102 240.541C56.2332 241.98 55.9985 243.371 55.7155 244.701C55.4205 246.026 55.1496 247.302 54.8607 248.512C54.5416 249.716 54.2406 250.86 53.9577 251.949C53.6507 253.027 53.3196 254.032 53.0306 254.977C52.8801 255.447 52.7477 255.904 52.5972 256.338C52.4346 256.771 52.2841 257.181 52.1336 257.578C51.8386 258.373 51.5677 259.095 51.3269 259.751C50.7912 261.034 50.3336 262.015 50.0387 262.689C49.8942 263.014 49.7738 263.267 49.6955 263.448C49.6173 263.616 49.5691 263.7 49.5691 263.7C49.5691 263.7 49.5992 263.61 49.6654 263.435C49.7437 263.249 49.846 262.996 49.9845 262.665C50.2614 261.985 50.7009 261.003 51.2186 259.709C51.4534 259.053 51.7122 258.325 52.0012 257.53C52.1457 257.133 52.2962 256.717 52.4467 256.284C52.5972 255.85 52.7236 255.393 52.868 254.917C53.145 253.972 53.4761 252.967 53.771 251.889C54.048 250.806 54.3429 249.656 54.65 248.458C54.9148 247.242 55.1918 245.971 55.4807 244.647C55.7516 243.317 55.9864 241.926 56.2513 240.493C56.4981 239.054 56.7148 237.555 56.9617 236.02C57.1663 234.479 57.383 232.89 57.5998 231.259C58.0031 227.996 58.3884 224.564 58.7737 221.007C59.159 217.449 59.5623 213.764 60.0439 209.996C60.5195 206.227 61.0914 202.561 61.7475 199.046C62.4218 195.524 63.2225 192.165 63.999 188.968C64.7816 185.771 65.5281 182.743 66.1722 179.89C66.8104 177.036 67.316 174.364 67.7073 171.907C67.8639 170.673 68.0625 169.505 68.1528 168.392C68.207 167.838 68.2612 167.296 68.3154 166.772C68.3455 166.249 68.3756 165.737 68.4057 165.243C68.4298 164.75 68.4719 164.274 68.4779 163.817C68.4839 163.359 68.4839 162.92 68.49 162.492C68.496 162.071 68.496 161.667 68.502 161.282C68.4839 160.897 68.4719 160.53 68.4538 160.186C68.4177 159.494 68.4177 158.874 68.3635 158.344C68.3154 157.815 68.2732 157.363 68.2371 156.996C68.207 156.641 68.1829 156.364 68.1649 156.165C68.1408 155.984 68.1468 155.888 68.1468 155.888Z" fill="#543B8B"/>
<path d="M65.4618 265.861C65.4618 265.861 65.4377 265.771 65.3956 265.585C65.3594 265.386 65.3053 265.115 65.239 264.766C65.1728 264.399 65.0885 263.953 64.9982 263.429C64.9079 262.9 64.7755 262.292 64.7153 261.599C64.637 260.907 64.5467 260.136 64.4504 259.294C64.336 258.451 64.33 257.524 64.2578 256.536C64.2337 256.043 64.1916 255.531 64.1735 255.001C64.1675 254.472 64.1675 253.924 64.1615 253.364C64.1554 252.804 64.1554 252.22 64.1494 251.63C64.1735 251.034 64.1915 250.426 64.2156 249.806C64.2397 249.18 64.2638 248.542 64.2939 247.892C64.3481 247.242 64.3962 246.573 64.4504 245.893C64.5407 244.533 64.7093 243.124 64.8778 241.667C65.0283 240.204 65.2872 238.711 65.4979 237.164C65.7628 235.623 66.0036 234.034 66.3166 232.414C67.5026 225.925 69.152 218.857 70.651 211.405C72.144 203.946 73.1854 196.77 73.8115 190.208C74.4617 183.652 74.7085 177.717 74.7928 172.732C74.8229 170.24 74.8108 167.988 74.7807 166.008C74.7446 164.027 74.6965 162.323 74.6363 160.933C74.5941 159.542 74.5219 158.459 74.4918 157.724C74.4797 157.369 74.4677 157.092 74.4557 156.887C74.4496 156.701 74.4557 156.604 74.4557 156.604C74.4557 156.604 74.4737 156.701 74.4858 156.887C74.5038 157.086 74.5219 157.363 74.552 157.718C74.6001 158.453 74.6904 159.53 74.7506 160.927C74.8289 162.317 74.8951 164.027 74.9493 166.008C74.9975 167.988 75.0215 170.246 75.0035 172.738C74.9493 177.729 74.7205 183.67 74.0884 190.238C73.4744 196.806 72.4389 204 70.946 211.471C69.447 218.936 67.7915 225.991 66.5875 232.475C66.2745 234.094 66.0277 235.677 65.7568 237.218C65.54 238.765 65.2812 240.258 65.1186 241.715C64.944 243.172 64.7695 244.575 64.6732 245.929C64.613 246.603 64.5588 247.272 64.5046 247.922C64.4745 248.572 64.4444 249.21 64.4203 249.83C64.3962 250.45 64.3661 251.058 64.3421 251.648C64.3421 252.238 64.3421 252.816 64.3421 253.376C64.3421 253.936 64.3421 254.484 64.3421 255.007C64.3541 255.537 64.3902 256.049 64.4143 256.542C64.4745 257.53 64.4745 258.451 64.5829 259.294C64.6671 260.136 64.7514 260.907 64.8237 261.599C64.8778 262.298 64.9982 262.9 65.0765 263.435C65.1608 263.959 65.233 264.411 65.2872 264.778C65.3414 265.133 65.3835 265.404 65.4136 265.603C65.4558 265.765 65.4618 265.861 65.4618 265.861Z" fill="#543B8B"/>
<path d="M78.9527 156.394C78.9527 156.394 78.9888 156.484 79.043 156.665C79.0971 156.858 79.1754 157.122 79.2717 157.466C79.3741 157.821 79.4945 158.254 79.6389 158.766C79.7955 159.278 79.9279 159.88 80.0603 160.56C80.1928 161.24 80.3794 161.993 80.5118 162.829C80.6322 163.666 80.7587 164.575 80.8971 165.556C80.9754 166.544 81.0597 167.591 81.15 168.711C81.168 169.831 81.2403 171.017 81.2162 172.257C81.1981 174.743 81.0175 177.464 80.6924 180.366C80.3493 183.267 79.8797 186.356 79.2958 189.588C78.6938 192.815 78.0617 196.198 77.4055 199.714C76.7493 203.224 76.1654 206.872 75.6417 210.622C75.1119 214.373 74.6905 218.045 74.3413 221.597C73.9801 225.148 73.7393 228.586 73.5286 231.855C73.348 235.13 73.1975 238.242 73.1373 241.162C73.0591 244.075 73.041 246.796 73.0531 249.277C73.0651 251.757 73.1012 254.002 73.1674 255.971C73.2096 257.939 73.2999 259.637 73.348 261.022C73.4143 262.394 73.4684 263.472 73.5046 264.212C73.5166 264.567 73.5286 264.844 73.5407 265.043C73.5467 265.23 73.5407 265.326 73.5407 265.326C73.5407 265.326 73.5226 265.23 73.5046 265.043C73.4865 264.844 73.4684 264.567 73.4383 264.212C73.3902 263.484 73.2999 262.406 73.2216 261.022C73.1494 259.637 73.047 257.939 72.9868 255.971C72.9086 254.002 72.8544 251.757 72.8303 249.271C72.8062 246.79 72.8062 244.069 72.8785 241.15C72.9266 238.23 73.0651 235.112 73.2397 231.831C73.4383 228.556 73.6731 225.112 74.0343 221.555C74.3775 217.997 74.7989 214.318 75.3286 210.568C75.8524 206.818 76.4363 203.157 77.0985 199.648C77.7607 196.138 78.3988 192.755 79.0068 189.528C79.5968 186.301 80.0724 183.225 80.4276 180.33C80.7587 177.434 80.9513 174.725 80.9874 172.245C81.0235 171.005 80.9573 169.825 80.9453 168.711C80.867 167.597 80.7888 166.55 80.7165 165.569C80.5901 164.593 80.4697 163.684 80.3613 162.847C80.2349 162.017 80.0603 161.264 79.9399 160.578C79.8135 159.898 79.6931 159.29 79.5426 158.778C79.4102 158.266 79.2958 157.827 79.2055 157.472C79.1212 157.128 79.055 156.858 79.0068 156.665C78.9647 156.49 78.9527 156.394 78.9527 156.394Z" fill="#543B8B"/>
<path d="M263.231 128.196L203.001 136.702C200.767 137.015 198.696 135.462 198.383 133.229L190.377 76.5265C190.064 74.2931 191.617 72.2222 193.85 71.9092L254.08 63.4029C256.314 63.0899 258.385 64.643 258.698 66.8764L266.704 123.579C267.023 125.812 265.464 127.883 263.231 128.196Z" fill="#FF3800"/>
<path d="M241.366 108.185C241.366 108.197 241.21 108.227 240.909 108.282C240.584 108.336 240.144 108.408 239.59 108.498C238.41 108.679 236.755 108.932 234.702 109.251C230.524 109.865 224.763 110.708 218.273 111.665L218.141 111.683L218.105 111.55C217.858 110.702 217.599 109.799 217.334 108.884C215.101 101.07 213.102 94.0924 211.796 89.5353L211.904 89.6075C210.05 89.8543 208.569 90.053 207.522 90.1915C207.034 90.2517 206.643 90.2998 206.354 90.3359C206.089 90.366 205.95 90.3781 205.95 90.366C205.95 90.354 206.083 90.3299 206.348 90.2818C206.637 90.2336 207.022 90.1674 207.51 90.0891C208.557 89.9266 210.032 89.6978 211.88 89.4149L211.964 89.4028L211.988 89.4871C213.319 94.0382 215.354 101.003 217.635 108.805C217.9 109.72 218.159 110.623 218.406 111.472L218.231 111.364C224.721 110.449 230.494 109.642 234.672 109.052C236.731 108.775 238.392 108.552 239.572 108.396C240.126 108.33 240.571 108.276 240.897 108.233C241.204 108.191 241.36 108.173 241.366 108.185Z" fill="#EBEBEB"/>
<path d="M216.895 106.813C216.895 106.807 216.931 106.801 217.009 106.783C217.1 106.765 217.214 106.747 217.346 106.723C217.665 106.668 218.105 106.596 218.665 106.506C219.839 106.325 221.512 106.072 223.607 105.753C227.851 105.127 233.787 104.254 240.656 103.249L240.529 103.393C240.62 100.45 240.722 97.2651 240.824 93.9721C240.879 92.2805 240.933 90.613 240.987 89.0237L241.161 89.1802C233.179 90.306 226.13 91.2993 221.049 92.0156C218.538 92.3588 216.51 92.6297 215.089 92.8223C214.409 92.9066 213.873 92.9788 213.482 93.027C213.313 93.0451 213.174 93.0631 213.066 93.0752C212.97 93.0812 212.922 93.0872 212.922 93.0812C212.922 93.0752 212.97 93.0631 213.06 93.0451C213.168 93.027 213.307 93.0029 213.475 92.9728C213.861 92.9126 214.397 92.8223 215.077 92.714C216.498 92.4972 218.514 92.1902 221.025 91.811C226.099 91.0705 233.143 90.0351 241.119 88.8732L241.3 88.8491L241.294 89.0357C241.246 90.625 241.192 92.2865 241.137 93.9842C241.029 97.2771 240.927 100.462 240.83 103.405L240.824 103.532L240.698 103.55C233.823 104.513 227.881 105.35 223.631 105.946C221.536 106.229 219.857 106.452 218.677 106.614C218.117 106.686 217.671 106.741 217.352 106.777C217.214 106.789 217.1 106.801 217.009 106.813C216.937 106.819 216.895 106.819 216.895 106.813Z" fill="#EBEBEB"/>
<path d="M224.932 116.95C224.901 116.956 224.871 116.752 224.721 116.42C224.57 116.095 224.263 115.644 223.697 115.343C223.15 115.042 222.319 114.952 221.584 115.355C220.856 115.734 220.314 116.643 220.459 117.594C220.585 118.546 221.362 119.268 222.168 119.424C222.981 119.605 223.758 119.286 224.197 118.84C224.655 118.395 224.823 117.871 224.871 117.516C224.932 117.161 224.901 116.95 224.932 116.95C224.944 116.944 225.016 117.149 225.004 117.534C224.986 117.907 224.847 118.485 224.366 118.997C223.902 119.509 223.047 119.894 222.12 119.707C221.205 119.545 220.302 118.726 220.158 117.636C219.989 116.547 220.621 115.511 221.458 115.096C222.295 114.657 223.228 114.789 223.812 115.144C224.42 115.499 224.715 116.017 224.835 116.372C224.956 116.733 224.944 116.95 224.932 116.95Z" fill="#EBEBEB"/>
<path d="M239.807 114.814C239.777 114.82 239.747 114.615 239.596 114.284C239.446 113.959 239.139 113.507 238.573 113.206C238.025 112.905 237.194 112.815 236.46 113.218C235.731 113.598 235.189 114.507 235.334 115.458C235.46 116.409 236.237 117.131 237.044 117.288C237.856 117.468 238.633 117.149 239.072 116.704C239.53 116.258 239.698 115.735 239.747 115.38C239.807 115.024 239.777 114.814 239.807 114.814C239.819 114.808 239.891 115.012 239.879 115.392C239.861 115.765 239.723 116.343 239.241 116.854C238.777 117.366 237.923 117.751 236.995 117.565C236.08 117.402 235.177 116.584 235.033 115.494C234.864 114.404 235.497 113.369 236.333 112.953C237.17 112.514 238.103 112.646 238.687 113.002C239.295 113.357 239.59 113.875 239.711 114.23C239.831 114.597 239.819 114.814 239.807 114.814Z" fill="#EBEBEB"/>
<path d="M245.091 90.5389C247.121 87.469 246.278 83.3346 243.208 81.3044C240.138 79.2743 236.004 80.1172 233.974 83.1871C231.944 86.257 232.786 90.3914 235.856 92.4215C238.926 94.4517 243.061 93.6088 245.091 90.5389Z" fill="#FAFAFA"/>
<path d="M242.769 83.8946C242.805 83.9186 242.534 84.3701 242.064 85.0805C241.601 85.7909 240.939 86.7601 240.186 87.8196C239.909 88.2109 239.638 88.5902 239.386 88.9453L239.301 89.0657L239.181 88.9875C237.574 87.928 236.442 87.1273 236.478 87.0671C236.514 87.0069 237.718 87.7112 239.343 88.7346L239.139 88.7768C239.392 88.4216 239.656 88.0363 239.927 87.645C240.674 86.5855 241.366 85.6404 241.878 84.9601C242.396 84.2798 242.733 83.8705 242.769 83.8946Z" fill="#FF3800"/>
<path d="M246.543 202.669L200.262 191.002C198.07 190.449 196.746 188.227 197.3 186.042L208.262 142.559C208.816 140.368 211.037 139.044 213.223 139.598L259.504 151.264C261.696 151.818 263.02 154.04 262.466 156.225L251.504 199.707C250.956 201.893 248.735 203.223 246.543 202.669Z" fill="#543B8B"/>
<path d="M254.815 239.482C256.651 240.282 258.005 241.98 258.686 243.864C259.366 245.748 259.426 247.807 259.197 249.8C258.758 253.653 256.573 257.542 254.213 260.624C250.968 257.794 250.222 252.852 249.999 250.324C249.656 246.326 251.45 238.886 254.815 239.482Z" fill="#FF3800"/>
<path d="M257.987 266.987C257.47 264.808 258.373 262.418 260.046 260.931C261.72 259.444 264.055 258.812 266.283 258.981C267.312 259.059 268.432 259.36 269.022 260.209C269.576 261.003 269.516 262.111 269.064 262.972C268.619 263.827 267.842 264.471 267.017 264.983C264.212 266.746 261.166 267.938 257.987 266.987Z" fill="#FF3800"/>
<path d="M253.828 278.798C253.81 278.792 253.852 278.516 253.942 278.01C254.044 277.456 254.177 276.734 254.333 275.873C254.694 274.085 255.152 271.526 256.543 269.04C257.915 266.56 259.83 264.736 261.449 263.827C262.25 263.363 262.954 263.086 263.448 262.942C263.694 262.858 263.893 262.827 264.025 262.797C264.158 262.767 264.23 262.761 264.23 262.767C264.254 262.827 263.104 263.038 261.551 263.995C259.992 264.928 258.138 266.734 256.789 269.173C255.429 271.605 254.935 274.133 254.532 275.909C254.333 276.806 254.177 277.534 254.05 278.034C253.924 278.528 253.846 278.805 253.828 278.798Z" fill="#322847"/>
<path d="M253.948 245.267C253.96 245.267 253.972 245.387 253.99 245.61C254.008 245.869 254.026 246.194 254.05 246.604C254.098 247.464 254.146 248.717 254.195 250.258C254.297 253.346 254.375 257.614 254.351 262.328C254.327 267.041 254.213 271.31 254.086 274.398C254.026 275.939 253.96 277.191 253.906 278.052C253.875 278.461 253.857 278.786 253.839 279.045C253.821 279.274 253.851 279.045 253.839 279.045C253.881 278.702 253.785 279.268 253.785 279.045C253.791 278.786 253.791 278.461 253.797 278.052C253.821 277.155 253.851 275.915 253.888 274.398C253.966 271.31 254.05 267.047 254.068 262.334C254.086 257.626 254.038 253.358 253.99 250.27C253.966 248.753 253.948 247.513 253.93 246.616C253.93 246.206 253.924 245.875 253.924 245.622C253.936 245.387 253.942 245.267 253.948 245.267Z" fill="#322847"/>
<path d="M252.377 269.329C251.636 264.669 248.494 260.449 244.238 258.414C243.154 257.897 241.739 257.554 240.849 258.36C239.958 259.167 240.156 260.618 240.59 261.737C242.408 266.403 247.29 269.702 252.299 269.642" fill="#FF3800"/>
<path d="M244.761 262.068C244.767 262.05 245.014 262.159 245.448 262.369C245.664 262.472 245.935 262.604 246.224 262.785C246.513 262.965 246.868 263.146 247.218 263.405C247.573 263.658 247.964 263.923 248.349 264.26C248.753 264.573 249.144 264.952 249.553 265.355C250.354 266.18 251.155 267.161 251.847 268.299C252.521 269.443 253.015 270.617 253.358 271.712C253.514 272.266 253.659 272.79 253.737 273.296C253.846 273.795 253.888 274.271 253.93 274.698C253.99 275.126 253.972 275.523 253.984 275.866C254.002 276.209 253.978 276.504 253.96 276.745C253.924 277.227 253.894 277.492 253.876 277.492C253.809 277.492 253.924 276.42 253.731 274.716C253.677 274.289 253.623 273.825 253.508 273.338C253.424 272.844 253.268 272.326 253.111 271.785C252.762 270.713 252.274 269.563 251.606 268.438C250.932 267.324 250.149 266.349 249.373 265.53C248.975 265.127 248.596 264.747 248.205 264.434C247.832 264.097 247.452 263.82 247.109 263.567C245.713 262.568 244.731 262.123 244.761 262.068Z" fill="#322847"/>
<g opacity="0.08">
<path d="M186.78 152.333C188.71 152.841 190.234 153.963 191.178 155.419L190.262 158.9C190.206 156.703 188.689 154.782 186.301 154.155C183.416 153.396 180.691 154.901 179.967 157.654C179.243 160.407 180.875 163.058 183.761 163.817C185.958 164.395 188.052 163.658 189.248 162.063L182.636 160.325L183.115 158.502L189.9 160.286L188.63 165.117C187.09 165.92 185.212 166.148 183.283 165.64C179.309 164.595 177.061 160.945 178.058 157.153C179.053 153.362 182.806 151.288 186.78 152.333Z" fill="white"/>
<path d="M193.3 154.34L203.62 157.054L203.14 158.877L194.732 156.666L193.773 160.312L202.182 162.523L201.702 164.346L193.294 162.135L192.335 165.781L200.744 167.992L200.264 169.815L189.945 167.101L193.3 154.34Z" fill="white"/>
<path d="M205.339 157.506L209.353 158.561L211.997 172.9L215.353 160.139L217.264 160.641L213.908 173.402L209.895 172.347L207.25 158.008L203.895 170.769L201.984 170.267L205.339 157.506Z" fill="white"/>
<path d="M215.725 171.931L220.597 173.212L222.994 164.097L218.122 162.816L218.601 160.993L230.258 164.058L229.778 165.88L224.906 164.6L222.51 173.715L227.382 174.996L226.902 176.819L215.246 173.754L215.725 171.931Z" fill="white"/>
<path d="M229.429 171.09L231.212 164.308L233.123 164.811L231.33 171.629C230.649 174.218 232.176 176.647 234.891 177.361C237.565 178.064 240.205 176.732 240.886 174.142L242.678 167.323L244.589 167.825L242.806 174.607C241.862 178.199 238.157 180.169 234.411 179.184C230.665 178.199 228.489 174.664 229.429 171.09Z" fill="white"/>
<path d="M242.33 179.92L243.208 176.583C242.988 178.201 244.375 179.677 245.943 180.089C247.071 180.386 248.413 180.096 248.729 178.893C249.405 176.323 243.486 175.525 244.536 171.534C245.144 169.219 247.395 168.348 249.707 168.956C250.777 169.237 251.748 169.824 252.444 170.669L251.562 174.023C251.778 172.501 250.775 171.185 249.247 170.784C248.12 170.487 246.801 170.686 246.475 171.927C245.77 174.608 251.637 175.603 250.626 179.45C250.022 181.747 247.736 182.512 245.483 181.919C244.258 181.597 243.114 180.905 242.33 179.92Z" fill="white"/>
</g>
<path d="M193.543 279.99L117.794 279.641C108.685 279.599 101.329 272.182 101.371 263.068L102.172 73.1612C102.208 64.0469 109.63 56.6905 118.751 56.7326L194.5 57.0818C203.609 57.1239 210.965 64.5405 210.923 73.6548L210.122 263.562C210.08 272.676 202.658 280.032 193.543 279.99Z" fill="#322847"/>
<path d="M193.766 62.4155L179.077 62.3493C177.109 62.3433 175.501 64.0048 175.495 66.0637L175.483 68.7305C175.477 70.7894 173.87 72.4509 171.901 72.4449L143.276 72.3124C141.308 72.3064 139.718 70.6268 139.724 68.568L139.737 65.9011C139.743 63.8423 138.153 62.1627 136.185 62.1567L131.02 62.1326L118.167 62.0724C111.786 62.0423 106.584 67.1954 106.56 73.5826L105.778 258.944C105.748 265.326 110.901 270.521 117.282 270.551L192.881 270.9C199.262 270.93 204.464 265.777 204.488 259.396L205.27 74.0341C205.294 67.6349 200.147 62.4456 193.766 62.4155Z" fill="#FAFAFA"/>
<path d="M116.349 82.1184C116.271 82.1184 116.192 82.0883 116.132 82.0281L114.982 80.8241C114.928 80.7639 114.898 80.6917 114.898 80.6074C114.898 80.5291 114.934 80.4509 114.988 80.3967L116.138 79.295C116.258 79.1807 116.451 79.1867 116.565 79.3071C116.68 79.4275 116.674 79.6201 116.553 79.7345L115.62 80.6255L116.565 81.6127C116.68 81.7331 116.674 81.9258 116.553 82.0402C116.499 82.0883 116.427 82.1184 116.349 82.1184Z" fill="#322847"/>
<path d="M187.734 259.913H125.24C119.883 259.913 115.536 255.567 115.536 250.209V248.475C115.536 243.117 119.883 238.771 125.24 238.771H187.74C193.098 238.771 197.444 243.117 197.444 248.475V250.209C197.444 255.567 193.098 259.913 187.734 259.913Z" fill="#FF3800"/>
<path d="M146.744 246.886H148.646C150.139 246.886 151.15 247.849 151.15 249.222C151.15 250.601 150.145 251.558 148.646 251.558H146.744V246.886ZM148.622 251.136C149.862 251.136 150.663 250.348 150.663 249.228C150.663 248.108 149.862 247.32 148.622 247.32H147.237V251.142H148.622V251.136Z" fill="#FAFAFA"/>
<path d="M151.843 249.222C151.843 247.862 152.884 246.844 154.299 246.844C155.702 246.844 156.749 247.856 156.749 249.222C156.749 250.589 155.702 251.6 154.299 251.6C152.884 251.6 151.843 250.589 151.843 249.222ZM156.261 249.222C156.261 248.108 155.425 247.284 154.305 247.284C153.173 247.284 152.336 248.102 152.336 249.222C152.336 250.336 153.179 251.161 154.305 251.161C155.425 251.161 156.261 250.342 156.261 249.222Z" fill="#FAFAFA"/>
<path d="M161.764 246.886V251.564H161.355L158.351 247.771V251.564H157.857V246.886H158.266L161.276 250.679V246.886H161.764Z" fill="#FAFAFA"/>
<path d="M166.592 251.136V251.564H163.287V246.886H166.49V247.314H163.781V248.975H166.201V249.397H163.781V251.13H166.592V251.136Z" fill="#FAFAFA"/>
<path d="M157.032 153.13C165.736 153.13 172.792 146.073 172.792 137.369C172.792 128.665 165.736 121.609 157.032 121.609C148.328 121.609 141.271 128.665 141.271 137.369C141.271 146.073 148.328 153.13 157.032 153.13Z" fill="#FF3800"/>
<path d="M164.792 130.717C164.99 130.88 162.047 134.841 158.218 139.56C157.399 140.554 156.617 141.505 155.894 142.378L155.575 142.763L155.232 142.414C152.24 139.332 150.193 137.038 150.338 136.894C150.482 136.749 152.77 138.79 155.858 141.788L155.202 141.824C155.912 140.939 156.677 139.976 157.483 138.977C161.318 134.251 164.593 130.555 164.792 130.717Z" fill="white"/>
<path d="M179.42 131.018C178.951 129.362 176.802 129.525 176.802 129.525L176.862 130.675C178.108 130.458 178.879 131.921 178.879 131.921L179.42 131.018Z" fill="#FF3800"/>
<path d="M133.765 134.492C133.295 132.836 131.146 132.999 131.146 132.999L131.206 134.149C132.452 133.932 133.223 135.395 133.223 135.395L133.765 134.492Z" fill="#E0E0E0"/>
<path d="M158.91 111.586C161.409 112.344 162.962 109.461 162.962 109.461L161.445 108.594C160.704 110.358 158.212 110.153 158.212 110.153L158.91 111.586Z" fill="#E0E0E0"/>
<path d="M145.058 114.686C143.897 114.806 143.758 116.269 143.758 116.269L144.535 116.359C144.535 115.504 145.6 115.149 145.6 115.149L145.058 114.686Z" fill="#FF3800"/>
<path d="M192.941 125.354C193.11 124.198 191.731 123.704 191.731 123.704L191.448 124.433C192.279 124.643 192.357 125.763 192.357 125.763L192.941 125.354Z" fill="#E0E0E0"/>
<path d="M151.837 99.4732C152.005 98.3174 150.627 97.8237 150.627 97.8237L150.344 98.5522C151.175 98.7629 151.247 99.8826 151.247 99.8826L151.837 99.4732Z" fill="#FF3800"/>
<path d="M123.133 118.117C122.923 119.929 125.325 120.369 125.325 120.369L125.758 119.183C124.319 119.051 124.109 117.359 124.109 117.359L123.133 118.117Z" fill="#FF3800"/>
<path d="M176.567 111.55C177.735 111.616 178.108 110.201 178.108 110.201L177.356 109.984C177.217 110.833 176.109 111.002 176.109 111.002L176.567 111.55Z" fill="#FF3800"/>
<path d="M182.942 116.305C182.942 116.359 182.509 116.402 181.979 116.402C181.449 116.402 181.016 116.359 181.016 116.305C181.016 116.251 181.449 116.209 181.979 116.209C182.509 116.209 182.942 116.251 182.942 116.305Z" fill="#E0E0E0"/>
<path d="M183.965 113.687C184.02 113.687 184.062 114.126 184.062 114.662C184.062 115.204 184.02 115.637 183.965 115.637C183.911 115.637 183.869 115.198 183.869 114.662C183.869 114.12 183.911 113.687 183.965 113.687Z" fill="#E0E0E0"/>
<path d="M185.055 116.239C185.055 116.185 185.489 116.143 186.018 116.143C186.548 116.143 186.982 116.185 186.982 116.239C186.982 116.293 186.548 116.335 186.018 116.335C185.483 116.335 185.055 116.293 185.055 116.239Z" fill="#E0E0E0"/>
<path d="M184.032 118.864C183.978 118.864 183.936 118.425 183.936 117.889C183.936 117.347 183.978 116.914 184.032 116.914C184.086 116.914 184.128 117.353 184.128 117.889C184.122 118.425 184.08 118.864 184.032 118.864Z" fill="#E0E0E0"/>
<path d="M185.585 117.738C185.543 117.774 185.362 117.618 185.169 117.389C184.983 117.16 184.862 116.949 184.898 116.919C184.941 116.883 185.121 117.04 185.314 117.268C185.507 117.491 185.627 117.702 185.585 117.738Z" fill="#E0E0E0"/>
<path d="M185.495 114.764C185.531 114.8 185.404 114.993 185.206 115.192C185.007 115.39 184.82 115.523 184.784 115.487C184.748 115.451 184.875 115.258 185.073 115.059C185.272 114.861 185.458 114.728 185.495 114.764Z" fill="#E0E0E0"/>
<path d="M183.291 115.523C183.255 115.565 183.08 115.468 182.894 115.312C182.707 115.155 182.581 114.999 182.617 114.957C182.653 114.915 182.827 115.011 183.014 115.167C183.195 115.324 183.321 115.486 183.291 115.523Z" fill="#E0E0E0"/>
<path d="M183.201 116.835C183.237 116.871 183.129 117.058 182.948 117.25C182.767 117.443 182.593 117.575 182.557 117.539C182.521 117.503 182.629 117.316 182.81 117.124C182.99 116.925 183.165 116.799 183.201 116.835Z" fill="#E0E0E0"/>
<path d="M130.496 110.936C130.496 110.99 130.062 111.032 129.533 111.032C129.003 111.032 128.569 110.99 128.569 110.936C128.569 110.881 129.003 110.839 129.533 110.839C130.068 110.845 130.496 110.888 130.496 110.936Z" fill="#FF3800"/>
<path d="M131.519 108.316C131.573 108.316 131.615 108.756 131.615 109.292C131.615 109.833 131.573 110.267 131.519 110.267C131.465 110.267 131.423 109.827 131.423 109.292C131.423 108.756 131.465 108.316 131.519 108.316Z" fill="#FF3800"/>
<path d="M132.609 110.875C132.609 110.821 133.042 110.779 133.572 110.779C134.102 110.779 134.535 110.821 134.535 110.875C134.535 110.929 134.102 110.971 133.572 110.971C133.042 110.971 132.609 110.929 132.609 110.875Z" fill="#FF3800"/>
<path d="M131.585 113.494C131.531 113.494 131.489 113.054 131.489 112.519C131.489 111.977 131.531 111.543 131.585 111.543C131.64 111.543 131.682 111.983 131.682 112.519C131.682 113.054 131.64 113.494 131.585 113.494Z" fill="#FF3800"/>
<path d="M133.145 112.374C133.103 112.41 132.922 112.254 132.729 112.025C132.543 111.796 132.422 111.586 132.459 111.555C132.501 111.519 132.681 111.676 132.874 111.905C133.061 112.127 133.181 112.338 133.145 112.374Z" fill="#FF3800"/>
<path d="M133.054 109.4C133.091 109.436 132.964 109.629 132.765 109.827C132.567 110.026 132.38 110.158 132.344 110.122C132.308 110.086 132.434 109.894 132.633 109.695C132.826 109.496 133.018 109.364 133.054 109.4Z" fill="#FF3800"/>
<path d="M130.845 110.159C130.809 110.201 130.634 110.105 130.448 109.949C130.261 109.792 130.135 109.636 130.171 109.593C130.207 109.551 130.381 109.648 130.568 109.804C130.755 109.961 130.881 110.117 130.845 110.159Z" fill="#FF3800"/>
<path d="M130.761 111.465C130.797 111.502 130.689 111.688 130.508 111.881C130.327 112.073 130.153 112.206 130.117 112.17C130.081 112.134 130.189 111.947 130.37 111.754C130.544 111.562 130.719 111.429 130.761 111.465Z" fill="#FF3800"/>
<path d="M197.125 78.8924C197.125 78.9766 195.223 79.0489 192.875 79.0489C190.527 79.0489 188.625 78.9766 188.625 78.8924C188.625 78.8081 190.527 78.7358 192.875 78.7358C195.217 78.7358 197.125 78.8021 197.125 78.8924Z" fill="#322847"/>
<path d="M197.125 80.6619C197.125 80.7462 195.223 80.8184 192.875 80.8184C190.527 80.8184 188.625 80.7462 188.625 80.6619C188.625 80.5776 190.527 80.5054 192.875 80.5054C195.217 80.5054 197.125 80.5776 197.125 80.6619Z" fill="#322847"/>
<path d="M197.125 82.4319C197.125 82.5162 195.223 82.5884 192.875 82.5884C190.527 82.5884 188.625 82.5162 188.625 82.4319C188.625 82.3476 190.527 82.2754 192.875 82.2754C195.217 82.2754 197.125 82.3476 197.125 82.4319Z" fill="#322847"/>
<path d="M147.36 214.97L167.184 215.125L167.379 190.1L147.555 189.945L147.36 214.97Z" fill="#EBEBEB"/>
<path d="M159.633 190.843L159.277 215.068L156.147 215.044L156.815 190.819L159.633 190.843Z" fill="#FAFAFA"/>
<path d="M136.179 190.657L147.55 190.748L167.374 190.904L147.532 193.511L147.364 214.978L135.998 214.888L136.179 190.657Z" fill="#E0E0E0"/>
<path d="M142.373 190.705L141.922 214.936L138.545 214.906L139.099 190.681L142.373 190.705Z" fill="#FAFAFA"/>
<path d="M151.373 183.331C151.379 183.482 151.048 183.644 150.44 183.789C149.832 183.933 148.941 184.084 147.809 184.138C147.244 184.168 146.617 184.168 145.943 184.12C145.606 184.096 145.251 184.06 144.89 183.999C144.522 183.939 144.179 183.885 143.728 183.753C143.505 183.68 143.27 183.596 143.017 183.446C142.765 183.295 142.482 183.078 142.265 182.741C142.042 182.404 141.946 181.983 141.94 181.652C141.934 181.315 141.988 181.038 142.036 180.809C142.223 180.008 142.415 179.189 142.795 178.299C142.987 177.859 143.228 177.426 143.517 177.022C143.668 176.818 143.818 176.637 144.005 176.444C144.197 176.252 144.408 176.071 144.667 175.909C144.926 175.752 145.227 175.614 145.564 175.547C145.901 175.481 146.274 175.493 146.593 175.571C147.231 175.74 147.635 176.065 147.948 176.324C149.152 177.341 150.007 178.485 150.555 179.521C151.102 180.556 151.349 181.483 151.433 182.127C151.512 182.777 151.433 183.145 151.289 183.175C150.97 183.253 150.5 181.977 149.242 180.369C148.61 179.575 147.767 178.702 146.696 177.931C146.449 177.751 146.22 177.642 146.118 177.636C146.064 177.63 146.046 177.636 146.009 177.648C145.973 177.66 145.913 177.69 145.835 177.739C145.757 177.793 145.672 177.865 145.582 177.961C145.492 178.058 145.389 178.19 145.299 178.311C145.118 178.569 144.962 178.858 144.817 179.183C144.541 179.822 144.336 180.586 144.137 181.309C144.095 181.459 144.077 181.573 144.077 181.622V181.646V181.652C144.065 181.652 144.029 181.664 144.017 181.664C143.945 181.682 143.927 181.7 143.975 181.67C143.981 181.664 144.029 181.634 144.047 181.616C144.047 181.616 144.047 181.622 144.053 181.628C144.059 181.64 144.077 181.658 144.107 181.682C144.167 181.724 144.27 181.778 144.39 181.826C144.631 181.923 144.974 182.013 145.275 182.091C145.582 182.175 145.889 182.236 146.184 182.302C146.78 182.422 147.346 182.506 147.876 182.579C148.929 182.717 149.808 182.814 150.416 182.934C151.024 183.048 151.367 183.181 151.373 183.331Z" fill="#E0E0E0"/>
<path d="M150.964 183.511C150.91 183.198 152.391 182.735 154.708 182.054C155.858 181.705 157.213 181.278 158.609 180.658C158.952 180.507 159.265 180.345 159.452 180.188C159.542 180.116 159.584 180.05 159.572 180.056C159.56 180.062 159.548 180.146 159.542 180.104C159.536 180.068 159.488 179.941 159.398 179.755C159.301 179.562 159.211 179.364 159.115 179.165C158.922 178.78 158.73 178.418 158.513 178.087C158.296 177.762 158.061 177.479 157.809 177.244C157.682 177.124 157.544 177.022 157.411 176.925C157.285 176.841 157.164 176.775 157.05 176.733C156.815 176.642 156.647 176.63 156.466 176.679C156.279 176.727 156.027 176.871 155.768 177.088C154.63 178.039 153.709 179.093 153.059 180.032C151.728 181.922 151.379 183.397 151.048 183.349C150.904 183.331 150.795 182.927 150.843 182.199C150.898 181.477 151.132 180.429 151.698 179.249C152.264 178.063 153.149 176.775 154.419 175.553C154.762 175.24 155.202 174.879 155.822 174.662C156.448 174.439 157.194 174.475 157.784 174.692C158.085 174.794 158.356 174.939 158.609 175.095C158.844 175.252 159.073 175.414 159.283 175.607C159.711 175.98 160.066 176.42 160.367 176.871C160.662 177.323 160.903 177.78 161.107 178.214C161.204 178.43 161.3 178.641 161.396 178.852C161.493 179.075 161.625 179.364 161.691 179.761C161.764 180.152 161.697 180.694 161.469 181.079C161.252 181.471 160.975 181.705 160.734 181.892C160.241 182.247 159.783 182.416 159.38 182.566C157.772 183.156 156.279 183.439 155.039 183.608C152.541 183.891 151.012 183.8 150.964 183.511Z" fill="#EBEBEB"/>
<path d="M132.569 190.622L161.705 190.849L161.77 182.566L132.633 182.338L132.569 190.622Z" fill="#E0E0E0"/>
<path d="M143.281 190.706L169.619 190.911L169.684 182.628L143.346 182.422L143.281 190.706Z" fill="#EBEBEB"/>
<path d="M161.607 182.572L161.42 190.892L158.35 190.831L158.567 182.548L161.607 182.572Z" fill="#FAFAFA"/>
<path d="M139.785 182.445L139.484 190.693L136.106 190.663L136.287 182.373L139.785 182.445Z" fill="#FAFAFA"/>
<path d="M168.835 214.515L180.068 214.603L180.179 200.425L168.945 200.338L168.835 214.515Z" fill="#EBEBEB"/>
<path d="M175.79 200.843L175.592 214.574L173.816 214.562L174.195 200.831L175.79 200.843Z" fill="#FAFAFA"/>
<path d="M162.498 200.741L168.946 200.789L180.179 200.879L168.934 202.36L168.837 214.521L162.396 214.472L162.498 200.741Z" fill="#E0E0E0"/>
<path d="M166.008 200.771L165.755 214.497L163.841 214.485L164.154 200.753L166.008 200.771Z" fill="#FAFAFA"/>
<path d="M171.107 196.587C171.107 196.791 170.373 197.05 169.084 197.159C168.428 197.195 167.676 197.207 166.731 196.966C166.478 196.882 166.122 196.767 165.821 196.334C165.677 196.117 165.617 195.846 165.611 195.642C165.605 195.431 165.641 195.262 165.665 195.13C165.773 194.672 165.876 194.203 166.104 193.679C166.219 193.42 166.357 193.167 166.532 192.927C166.706 192.698 166.905 192.457 167.23 192.258C167.531 192.06 168.025 191.939 168.434 192.054C168.831 192.162 169.072 192.361 169.259 192.511C169.951 193.107 170.433 193.775 170.74 194.377C171.348 195.605 171.258 196.478 171.065 196.508C170.842 196.563 170.541 195.852 169.813 194.979C169.446 194.546 168.97 194.07 168.374 193.649C168.235 193.553 168.121 193.504 168.103 193.511H168.097V193.48L168.103 193.517C168.103 193.523 168.085 193.529 168.055 193.547C167.995 193.583 167.898 193.697 167.796 193.836C167.706 193.968 167.621 194.125 167.543 194.299C167.393 194.642 167.278 195.076 167.164 195.479L167.134 195.618C167.158 195.618 167.056 195.624 167.032 195.624C166.995 195.63 166.965 195.636 166.941 195.642C166.899 195.654 166.893 195.66 166.917 195.648C166.941 195.636 166.971 195.605 167.025 195.551L167.056 195.515C167.056 195.515 167.062 195.521 167.068 195.527C167.086 195.545 167.134 195.575 167.194 195.599C167.814 195.828 168.549 195.961 169.126 196.051C170.318 196.226 171.107 196.364 171.107 196.587Z" fill="#E0E0E0"/>
<path d="M170.878 196.695C170.836 196.454 171.673 196.135 172.967 195.714C173.611 195.497 174.364 195.244 175.134 194.883C175.321 194.799 175.489 194.702 175.562 194.636C175.598 194.606 175.598 194.582 175.568 194.63C175.538 194.672 175.519 194.787 175.525 194.793C175.453 194.636 175.375 194.48 175.303 194.323C175.194 194.106 175.092 193.914 174.978 193.739C174.863 193.564 174.743 193.42 174.616 193.306C174.484 193.185 174.346 193.089 174.261 193.053C174.165 193.017 174.129 193.011 174.069 193.017C174.008 193.023 173.882 193.089 173.744 193.197C173.111 193.709 172.588 194.281 172.208 194.787C171.438 195.804 171.179 196.617 170.932 196.587C170.715 196.58 170.535 195.587 171.167 194.185C171.48 193.486 171.974 192.734 172.708 192.017C172.913 191.831 173.178 191.602 173.575 191.464C173.972 191.319 174.454 191.343 174.827 191.476C175.02 191.542 175.188 191.626 175.345 191.728C175.489 191.825 175.628 191.921 175.754 192.035C176.013 192.258 176.23 192.523 176.404 192.794C176.579 193.065 176.717 193.33 176.838 193.583L177 193.95C177.055 194.082 177.139 194.257 177.181 194.522C177.229 194.781 177.181 195.148 177.03 195.407C176.886 195.665 176.705 195.822 176.549 195.936C176.236 196.159 175.965 196.255 175.73 196.34C174.797 196.671 173.936 196.815 173.226 196.894C171.787 197.026 170.914 196.918 170.878 196.695Z" fill="#E0E0E0"/>
<path d="M160.448 200.721L176.961 200.85L176.997 196.154L160.484 196.026L160.448 200.721Z" fill="#E0E0E0"/>
<path d="M166.525 200.768L181.449 200.885L181.486 196.189L166.562 196.073L166.525 200.768Z" fill="#EBEBEB"/>
<path d="M176.91 196.16L176.802 200.874L175.062 200.838L175.189 196.148L176.91 196.16Z" fill="#FAFAFA"/>
<path d="M164.545 196.088L164.377 200.759L162.462 200.747L162.565 196.045L164.545 196.088Z" fill="#FAFAFA"/>
</svg>
