<svg width="220" height="75" viewBox="0 0 220 75" fill="none" xmlns="http://www.w3.org/2000/svg">
<path d="M19.4237 43.7702C20.5244 43.7702 21.4309 43.4466 22.2078 42.67C22.92 41.9581 23.3085 41.052 23.3085 39.8871C23.3085 38.7869 22.92 37.8809 22.2078 37.1042C21.4309 36.3924 20.5244 36.004 19.4237 36.004H8.41695V23.0605H25.5746C26.6753 23.0605 27.5817 22.7369 28.3587 21.9603C29.0709 21.2484 29.4593 20.3423 29.4593 19.1774C29.4593 18.0772 29.0709 17.1712 28.3587 16.3946C27.5817 15.6827 26.6753 15.2944 25.5746 15.2944H4.20848C2.91356 15.2944 1.87763 15.6827 1.10068 16.4593C0.323728 17.2359 0 18.2067 0 19.501V56.7137C0 58.0081 0.323728 59.0436 1.10068 59.8202C1.87763 60.5968 2.91356 60.9204 4.20848 60.9204C5.50339 60.9204 6.47458 60.5968 7.25153 59.8202C8.02848 59.0436 8.41695 58.0081 8.41695 56.7137V43.7702H19.4237Z" fill="#EC5C63"/>
<path d="M56.377 57.6845C56.4418 57.8787 56.5713 58.1375 56.7655 58.4611C56.9597 58.8494 57.2187 59.173 57.6072 59.5613C57.9309 59.9496 58.3842 60.2732 58.9021 60.5321C59.4201 60.791 60.1323 60.9204 60.9092 60.9204C62.0099 60.9204 62.9164 60.5968 63.6933 59.8202C64.4055 59.0436 64.794 58.0081 64.794 56.7137C64.794 56.0666 64.5997 55.4841 64.276 54.9016C63.9523 54.3192 63.6933 53.8662 63.4991 53.4778L56.7008 41.8286V41.5051C57.9309 40.8579 59.0964 39.9518 60.1323 38.7869C60.9092 37.8809 61.6862 36.6512 62.3984 35.098C63.1106 33.6095 63.4991 31.7327 63.4991 29.5323C63.4991 27.526 63.1106 25.6492 62.3984 23.9018C61.6214 22.2192 60.5855 20.7306 59.2906 19.4363C57.9309 18.1419 56.3123 17.1712 54.4994 16.3946C52.6218 15.6827 50.5499 15.2944 48.2838 15.2944H36.9533C35.6584 15.2944 34.6225 15.6827 33.8455 16.4593C33.0686 17.2359 32.7448 18.2067 32.7448 19.501V56.7137C32.7448 58.0081 33.0686 59.0436 33.8455 59.8202C34.6225 60.5968 35.6584 60.9204 36.9533 60.9204C38.2482 60.9204 39.2194 60.5968 39.9964 59.8202C40.7733 59.0436 41.1618 58.0081 41.1618 56.7137V43.7702H48.2838L56.377 57.6845ZM48.2838 23.0605C50.2262 23.0605 51.7801 23.7077 52.9455 24.8726C54.1109 26.0375 54.7584 27.5907 54.7584 29.5323C54.7584 31.4738 54.1109 33.0917 52.9455 34.2567C51.7801 35.4216 50.2262 36.004 48.2838 36.004H41.1618V23.0605H48.2838Z" fill="#EC5C63"/>
<path d="M77.7635 19.1774C77.7635 17.8831 77.375 16.9123 76.5981 16.1357C75.8212 15.3591 74.85 14.9708 73.5551 14.9708C72.2601 14.9708 71.2242 15.3591 70.4473 16.1357C69.6703 16.9123 69.3466 17.8831 69.3466 19.1774V56.7137C69.3466 58.0081 69.6703 59.0436 70.4473 59.8202C71.2242 60.5968 72.2601 60.9204 73.5551 60.9204C74.85 60.9204 75.8212 60.5968 76.5981 59.8202C77.375 59.0436 77.7635 58.0081 77.7635 56.7137V19.1774Z" fill="#EC5C63"/>
<path d="M97.8753 54.125C96.1919 54.125 94.7675 53.7367 93.6021 52.9601C92.4367 52.1835 91.4655 51.0186 90.7533 49.5948C90.3648 48.9476 89.9763 48.3651 89.4584 47.8474C88.9404 47.3297 88.1635 47.0061 87.1923 47.0061C85.8974 47.0061 84.8614 47.3944 84.0845 48.171C83.3075 48.9476 82.9838 49.9184 82.9838 51.2127C82.9838 52.2482 83.3075 53.4131 84.0845 54.6428C84.8614 55.9371 85.8974 57.102 87.257 58.1375C88.5519 59.2377 90.1706 60.1438 91.9835 60.8557C93.7963 61.5676 95.7387 61.8912 97.8753 61.8912C100.336 61.8912 102.602 61.5676 104.544 60.8557C106.487 60.2085 108.17 59.2377 109.53 57.9434C110.889 56.649 111.925 55.1605 112.637 53.3484C113.35 51.5363 113.738 49.5301 113.738 47.3297C113.738 44.8057 113.155 42.7347 112.119 41.1815C111.083 39.6282 109.724 38.2692 108.17 37.2337C106.616 36.1982 104.868 35.4216 103.055 34.7744C101.177 34.1272 99.4292 33.4801 97.8753 32.8329C96.3214 32.1857 94.9618 31.4738 93.9258 30.6325C92.8899 29.7911 92.3719 28.6909 92.3719 27.2671C92.3719 25.6492 92.8899 24.3548 93.9906 23.3194C95.0913 22.2839 96.7099 21.7661 98.8465 21.7661C100.595 21.7661 101.954 22.2192 102.925 23.0605C103.897 23.9018 104.674 24.7432 105.321 25.6492C105.774 26.4258 106.228 26.9436 106.746 27.3319C107.199 27.7202 107.911 27.9143 108.882 27.9143C109.918 27.9143 110.824 27.526 111.601 26.7494C112.378 25.9728 112.767 25.002 112.767 23.7077C112.767 22.6722 112.378 21.6367 111.731 20.4718C111.083 19.3069 110.112 18.2714 108.947 17.3006C107.717 16.3946 106.228 15.6179 104.544 14.9708C102.861 14.3236 100.918 14 98.8465 14C96.5804 14 94.5086 14.3883 92.6957 15.0355C90.8828 15.7474 89.3289 16.7181 88.034 17.8831C86.7391 19.1127 85.7031 20.5365 84.9909 22.2192C84.2787 23.9018 83.955 25.6492 83.955 27.5907C83.955 30.1794 84.473 32.2504 85.5089 33.8036C86.5448 35.3569 87.9045 36.6512 89.4584 37.622C91.0123 38.6575 92.7604 39.4341 94.638 40.0813C96.4509 40.7284 98.1991 41.4403 99.753 42.0875C101.307 42.7347 102.667 43.5113 103.702 44.4174C104.738 45.3234 105.321 46.4883 105.321 47.9768C105.321 49.6595 104.609 51.0833 103.314 52.3129C101.954 53.5426 100.141 54.125 97.8753 54.125Z" fill="#EC5C63"/>
<path d="M123.174 15.2944C121.879 15.2944 120.844 15.6827 120.067 16.4593C119.29 17.2359 118.966 18.2067 118.966 19.501V56.3901C118.966 57.6845 119.29 58.72 120.067 59.4966C120.844 60.2732 121.879 60.5968 123.174 60.5968H136.124C138.195 60.5968 140.138 60.2732 141.951 59.5613C143.699 58.8494 145.253 57.8787 146.548 56.649C147.843 55.4194 148.814 53.9956 149.591 52.3129C150.303 50.6303 150.691 48.8829 150.691 47.0061C150.691 44.9351 150.303 43.1877 149.591 41.8934C148.878 40.599 148.037 39.4988 147.13 38.6575C146.094 37.7514 144.864 37.1042 143.569 36.6512V36.3276C144.476 35.9393 145.382 35.3569 146.159 34.5803C146.807 33.9978 147.389 33.1565 147.907 32.121C148.425 31.0855 148.749 29.7911 148.749 28.2379C148.749 26.4905 148.361 24.8079 147.713 23.2546C147.001 21.7014 146.03 20.2776 144.799 19.1127C143.569 17.9478 142.08 17.0417 140.397 16.3298C138.713 15.6827 136.836 15.2944 134.829 15.2944H123.174ZM135.8 40.8579C137.742 40.8579 139.231 41.4403 140.332 42.4758C141.368 43.576 141.951 45.0645 141.951 47.0061C141.951 48.8182 141.433 50.242 140.397 51.2774C139.361 52.3129 137.936 52.8307 136.124 52.8307H127.383V40.8579H135.8ZM134.829 23.0605C136.447 23.0605 137.742 23.5135 138.649 24.4196C139.555 25.3256 140.008 26.62 140.008 28.2379C140.008 31.9268 138.131 33.7389 134.505 33.7389H127.383V23.0605H134.829Z" fill="#EC5C63"/>
<path d="M182.106 60.5968C183.207 60.5968 184.113 60.2732 184.89 59.4966C185.602 58.7847 185.991 57.8787 185.991 56.7137C185.991 55.6135 185.602 54.7075 184.89 53.9309C184.113 53.219 183.207 52.8307 182.106 52.8307H164.301V41.8286H176.279C177.379 41.8286 178.286 41.5051 179.063 40.7284C179.775 40.0165 180.163 39.1105 180.163 37.9456C180.163 36.8454 179.775 35.9393 179.063 35.1627C178.286 34.4508 177.379 34.0625 176.279 34.0625H164.301V23.0605H181.458C182.559 23.0605 183.466 22.7369 184.242 21.9603C184.955 21.2484 185.343 20.3423 185.343 19.1774C185.343 18.0772 184.955 17.1712 184.242 16.3946C183.466 15.6827 182.559 15.2944 181.458 15.2944H160.092C158.797 15.2944 157.761 15.6827 156.984 16.4593C156.208 17.2359 155.884 18.2067 155.884 19.501V56.3901C155.884 57.6845 156.208 58.72 156.984 59.4966C157.761 60.2732 158.797 60.5968 160.092 60.5968H182.106Z" fill="#EC5C63"/>
<path d="M216.115 60.5968C217.216 60.5968 218.122 60.2732 218.899 59.4966C219.612 58.7847 220 57.8787 220 56.7137C220 55.6135 219.612 54.7075 218.899 53.9309C218.122 53.219 217.216 52.8307 216.115 52.8307H198.31V41.8286H210.288C211.389 41.8286 212.295 41.5051 213.072 40.7284C213.784 40.0165 214.173 39.1105 214.173 37.9456C214.173 36.8454 213.784 35.9393 213.072 35.1627C212.295 34.4508 211.389 34.0625 210.288 34.0625H198.31V23.0605H215.468C216.568 23.0605 217.475 22.7369 218.252 21.9603C218.964 21.2484 219.353 20.3423 219.353 19.1774C219.353 18.0772 218.964 17.1712 218.252 16.3946C217.475 15.6827 216.568 15.2944 215.468 15.2944H194.102C192.807 15.2944 191.771 15.6827 190.994 16.4593C190.217 17.2359 189.893 18.2067 189.893 19.501V56.3901C189.893 57.6845 190.217 58.72 190.994 59.4966C191.771 60.2732 192.807 60.5968 194.102 60.5968H216.115Z" fill="#EC5C63"/>
</svg>
